<?xml version="1.0" standalone="no"?>
<!DOCTYPE svg PUBLIC "-//W3C//DTD SVG 20010904//EN"
 "http://www.w3.org/TR/2001/REC-SVG-20010904/DTD/svg10.dtd">
<svg version="1.0" xmlns="http://www.w3.org/2000/svg"
 width="1024.000000pt" height="1024.000000pt" viewBox="0 0 1024.000000 1024.000000"
 preserveAspectRatio="xMidYMid meet">

<g transform="translate(0.000000,1024.000000) scale(0.100000,-0.100000)"
fill="#000000" stroke="none">
<path d="M759 10160 c-29 -44 -79 -120 -110 -170 -30 -49 -62 -97 -71 -107 -8
-10 -45 -72 -83 -138 -37 -66 -73 -127 -80 -135 -15 -18 -173 -320 -233 -445
-23 -49 -54 -110 -68 -135 -14 -25 -39 -74 -56 -110 -16 -36 -37 -78 -45 -95
-10 -20 -13 -54 -11 -104 l3 -75 22 67 c13 37 32 77 43 89 11 12 20 28 20 36
0 22 42 112 52 112 6 0 8 -13 4 -32 -8 -38 -47 -118 -58 -118 -4 0 -8 -9 -8
-19 0 -11 -4 -23 -10 -26 -5 -3 -10 -15 -10 -26 0 -11 -12 -38 -27 -61 l-28
-42 -3 -3883 -2 -3883 255 0 c243 0 255 -1 255 -19 0 -10 -7 -24 -16 -32 -8
-7 -22 -26 -31 -42 -13 -26 -96 -134 -112 -147 -4 -3 -29 -36 -56 -75 -27 -38
-65 -87 -85 -108 -19 -21 -39 -46 -44 -55 -5 -10 -45 -60 -88 -113 l-78 -96 0
-86 0 -87 4720 0 4720 0 0 80 0 80 320 0 320 0 0 -80 0 -80 80 0 80 0 0 189 0
189 -56 51 c-30 28 -60 51 -65 51 -5 0 -24 15 -43 33 -18 17 -112 99 -209 182
-97 82 -177 153 -177 157 0 5 124 8 275 8 l275 0 0 3865 0 3865 -29 47 c-16
27 -37 71 -46 98 -10 28 -22 55 -26 60 -4 6 -30 53 -57 105 -27 52 -70 135
-96 183 -45 86 -49 107 -21 107 7 0 15 5 17 10 3 11 160 -286 172 -328 4 -12
25 -59 47 -105 31 -65 38 -75 35 -47 -11 84 -30 140 -91 268 -75 156 -73 165
5 17 50 -95 90 -152 90 -128 0 13 -175 359 -226 446 -19 32 -34 60 -34 63 0 2
-11 21 -23 42 -13 20 -57 93 -97 162 -40 69 -87 148 -105 175 -18 28 -61 97
-95 155 -34 58 -77 125 -96 150 -19 25 -38 54 -43 65 -5 12 -16 27 -25 34 -9
7 -16 19 -16 26 0 17 -33 45 -53 45 -9 0 -17 -2 -17 -5 0 -7 53 -95 122 -200
92 -141 101 -157 115 -187 6 -15 32 -57 56 -95 24 -37 57 -93 72 -123 15 -30
38 -71 50 -90 31 -50 145 -268 145 -277 0 -10 -69 -58 -74 -52 -2 2 -33 58
-68 125 -56 103 -91 164 -156 269 -6 11 -24 42 -39 69 -16 27 -32 56 -38 65
-5 9 -21 34 -34 56 -47 76 -94 151 -166 260 -41 61 -81 127 -91 148 l-18 37
-4145 0 -4146 0 -86 -132 c-90 -140 -150 -236 -190 -303 -12 -22 -26 -42 -30
-45 -3 -3 -24 -36 -46 -75 -65 -114 -68 -119 -80 -135 -6 -8 -25 -40 -41 -70
-52 -98 -89 -164 -129 -230 -38 -62 -42 -65 -82 -68 -29 -2 -43 1 -47 12 -6
14 144 327 172 357 8 8 14 20 14 26 0 6 4 13 8 15 4 2 21 30 36 62 16 32 51
92 77 132 27 41 49 76 49 79 0 3 45 74 99 158 55 83 109 167 120 185 l20 32
-22 0 c-17 0 -36 -20 -78 -80z m6971 52 c0 -5 -39 -78 -87 -163 -47 -85 -97
-174 -109 -198 -20 -38 -40 -70 -89 -152 -6 -9 -29 -45 -52 -80 -24 -34 -43
-68 -43 -73 -1 -6 -21 -36 -45 -66 -25 -30 -61 -80 -82 -110 -20 -30 -46 -65
-56 -77 l-20 -22 -91 90 c-378 375 -558 546 -599 571 -26 17 -53 38 -61 49 -7
11 -42 42 -77 70 -35 28 -78 65 -94 82 -17 18 -46 44 -65 59 l-35 27 803 1
c441 0 802 -4 802 -8z m-3242 -17 c9 -3 12 -94 12 -410 0 -445 5 -408 -60
-460 -45 -36 -70 -76 -94 -154 -14 -42 -32 -94 -40 -116 -8 -22 -34 -89 -56
-150 -77 -204 -90 -235 -109 -273 -10 -20 -24 -55 -30 -77 -30 -97 -19 -90
-135 -93 l-105 -2 -30 37 c-17 21 -31 43 -31 49 0 6 -10 19 -22 27 -44 29
-686 674 -701 703 -8 16 -18 43 -21 59 -4 17 -34 73 -66 125 -33 52 -81 131
-107 175 -26 44 -62 99 -80 123 -18 24 -33 47 -33 52 0 5 -39 71 -86 147 -110
175 -144 232 -144 241 0 7 1916 5 1938 -3z m1102 5 c0 -11 -54 -55 -103 -85
-66 -40 -153 -100 -189 -132 -21 -18 -50 -35 -65 -38 -41 -9 -113 -43 -113
-54 0 -11 -9 -20 -76 -78 -27 -23 -62 -54 -79 -68 -16 -15 -93 -76 -170 -137
-77 -61 -146 -119 -153 -129 -7 -11 -17 -19 -23 -19 -5 0 -9 147 -9 375 l0
375 490 0 c305 0 490 -4 490 -10z m-245 -321 c44 -17 105 -40 135 -51 30 -12
60 -28 67 -37 7 -9 13 -12 13 -7 0 5 10 1 22 -10 13 -12 18 -13 13 -4 -7 12
-6 13 6 4 8 -6 39 -19 69 -29 111 -37 219 -93 232 -121 11 -24 9 -29 -33 -68
-25 -22 -56 -48 -69 -56 -13 -8 -35 -27 -49 -41 -14 -15 -45 -36 -68 -48 -23
-12 -66 -42 -94 -67 -28 -25 -52 -44 -54 -42 -1 2 -33 41 -70 87 -37 46 -83
100 -102 120 -46 46 -143 176 -143 189 0 6 -15 21 -32 34 -42 29 -68 55 -68
67 0 22 108 111 135 111 6 0 46 -14 90 -31z m3107 -268 c119 -31 205 -82 325
-195 l33 -31 1 -783 c0 -431 -2 -786 -5 -789 -3 -3 -22 10 -43 29 -120 109
-150 136 -173 151 -13 10 -56 47 -95 85 -134 127 -255 233 -426 374 -42 35
-85 75 -95 89 -10 15 -31 35 -48 45 -16 10 -51 38 -76 63 -46 47 -92 88 -220
201 -41 36 -111 99 -155 140 -44 41 -114 106 -155 144 l-74 68 31 27 c53 45
96 78 153 117 30 20 64 45 75 55 11 10 38 25 59 34 21 9 56 28 77 42 53 35
181 92 248 110 171 47 430 58 563 24z m-6203 -26 c182 -51 395 -150 516 -240
39 -28 81 -58 95 -65 79 -42 328 -269 686 -626 184 -182 349 -339 366 -347 37
-18 78 -53 78 -67 0 -5 -13 -49 -29 -97 -77 -230 -91 -254 -171 -289 -97 -43
-115 -44 -750 -44 -897 0 -791 -19 220 -38 219 -5 325 -10 306 -16 -16 -5
-184 -5 -400 0 -204 4 -676 8 -1048 9 l-678 0 6 800 c5 664 8 804 20 822 21
34 160 133 239 171 99 48 184 62 334 56 89 -3 148 -11 210 -29z m3816 -55 c33
-28 80 -62 104 -78 25 -15 57 -38 72 -52 15 -14 68 -56 119 -95 50 -38 114
-89 143 -112 29 -23 88 -67 132 -97 113 -76 153 -113 137 -124 -8 -5 -57 -43
-109 -83 -104 -80 -167 -126 -225 -165 -21 -13 -38 -28 -38 -32 0 -4 -27 -25
-60 -46 -33 -21 -79 -55 -102 -75 -24 -21 -81 -62 -128 -92 -112 -73 -107 -70
-146 -79 -34 -8 -35 -7 -56 39 -11 25 -38 98 -59 161 -20 63 -44 129 -53 145
-9 17 -16 36 -16 43 0 12 -79 232 -99 277 -28 61 -71 187 -71 207 1 17 17 33
59 61 32 20 73 51 91 67 19 17 37 30 42 30 5 0 27 17 51 39 51 46 136 111 146
111 4 0 34 -23 66 -50z m3969 -296 c23 -50 16 -52 -12 -3 -12 21 -19 39 -14
39 4 0 16 -16 26 -36z m-2808 -81 c33 -32 92 -87 133 -123 40 -36 85 -76 100
-90 15 -14 54 -47 86 -75 32 -27 66 -57 74 -66 9 -8 62 -55 118 -103 56 -48
103 -90 105 -94 4 -8 86 -84 177 -162 83 -71 101 -91 101 -107 0 -8 4 -12 9
-8 8 5 36 -15 97 -70 52 -46 179 -160 228 -205 34 -31 79 -71 101 -89 22 -19
63 -55 91 -80 28 -25 60 -51 70 -58 17 -11 17 -12 2 -12 -15 -1 -58 21 -138
70 -8 5 -31 18 -50 29 -19 11 -57 34 -85 51 -27 16 -61 35 -75 42 -14 7 -32
18 -40 25 -24 20 -208 142 -215 142 -11 0 -122 80 -156 112 -21 20 -56 44
-241 166 -37 24 -72 50 -79 58 -6 8 -16 14 -21 14 -5 0 -43 27 -83 60 -40 33
-77 60 -82 60 -5 0 -34 18 -64 41 -30 22 -90 63 -134 90 -75 48 -140 91 -210
140 -16 11 -52 34 -78 50 l-48 29 78 68 c42 37 98 86 123 109 25 24 45 43 46
43 0 0 27 -26 60 -57z m1752 -22 c41 -48 128 -185 172 -271 23 -47 51 -97 61
-111 31 -44 119 -200 120 -212 0 -7 14 -32 30 -57 16 -25 42 -70 58 -100 16
-30 43 -82 61 -115 35 -65 35 -102 0 -160 -10 -16 -21 -41 -25 -55 -8 -28 -50
-113 -88 -180 l-25 -45 -221 -3 -221 -2 0 668 c0 368 3 672 7 675 11 12 47 -4
71 -32z m-7632 -41 c-3 -17 -6 -323 -6 -679 l-1 -649 -31 -6 c-47 -9 -638 -7
-638 2 0 17 42 138 77 222 113 274 103 252 268 595 224 468 269 545 311 545
24 0 26 -3 20 -30z m-1181 -107 c-9 -15 -13 -19 -9 -8 3 11 9 31 12 45 4 18 7
20 10 8 2 -9 -4 -29 -13 -45z m6796 -81 c42 -26 98 -60 124 -77 106 -66 503
-335 578 -391 31 -24 61 -44 66 -44 4 0 16 -9 27 -21 10 -12 36 -30 58 -41 21
-11 62 -38 91 -61 74 -58 136 -102 163 -117 13 -6 61 -40 105 -75 87 -67 83
-59 128 -209 18 -59 38 -56 -335 -56 l-344 0 -47 75 c-25 41 -49 75 -52 75 -8
0 7 -52 29 -98 11 -24 19 -45 16 -47 -2 -2 -303 -5 -668 -7 l-665 -3 -70 26
-70 26 -50 149 c-28 82 -59 164 -69 183 -18 35 -18 35 5 53 13 10 33 27 44 36
11 10 43 32 70 50 28 17 62 45 78 61 15 16 60 54 100 84 39 30 83 67 97 82 14
15 48 42 75 60 28 19 69 51 92 72 23 21 63 54 88 73 26 19 68 53 94 76 66 58
142 114 155 114 6 0 45 -21 87 -48z m-1913 -209 c22 -18 22 -19 20 -263 l-3
-245 -37 -20 c-38 -20 -38 -20 -57 0 -17 17 -20 40 -26 180 -6 144 3 300 21
372 6 21 8 22 33 8 14 -8 36 -22 49 -32z m-369 -485 c46 -45 68 -62 56 -43
-18 30 -18 30 19 -5 42 -39 47 -33 -42 -55 -19 -4 -36 -14 -39 -21 -3 -8 -17
-14 -32 -14 -16 0 -37 -10 -51 -25 -13 -14 -33 -25 -45 -25 -12 0 -30 -7 -41
-15 -10 -8 -27 -15 -36 -15 -12 0 -15 -5 -11 -17 5 -13 2 -15 -18 -9 -13 4
-45 11 -71 15 -82 13 -104 56 -46 91 l32 19 12 -28 c10 -25 51 -48 63 -36 2 3
-2 23 -9 45 -15 46 -5 65 48 87 20 8 32 20 32 33 0 12 13 25 36 36 20 9 41 25
47 36 7 10 14 18 17 18 2 0 38 -33 79 -72z m4901 -118 c0 -8 23 -60 50 -115
28 -55 51 -111 53 -125 l2 -25 -140 -3 c-76 -1 -145 0 -152 3 -11 3 -7 19 17
62 16 32 30 62 30 67 0 4 21 53 47 108 l47 100 23 -28 c13 -16 23 -36 23 -44z
m-1236 -114 c22 -10 65 -35 95 -55 31 -21 88 -55 126 -77 l70 -39 -110 -3
c-61 -1 -128 1 -149 5 -36 8 -40 12 -57 66 -24 75 -34 131 -23 125 5 -2 27
-12 48 -22z m-2387 -34 c49 -45 53 -52 83 -156 18 -60 36 -116 41 -125 17 -30
87 -227 104 -290 9 -35 21 -71 28 -82 6 -10 8 -21 4 -25 -11 -11 -93 24 -124
54 -15 15 -35 31 -44 37 -31 19 -104 77 -139 109 -19 17 -55 46 -80 63 -25 17
-58 43 -74 58 -29 27 -98 81 -150 119 -64 46 -63 45 -39 62 12 9 32 25 45 36
13 11 39 27 58 35 19 8 53 28 75 44 22 16 65 47 95 69 30 22 57 40 60 40 3 -1
28 -22 57 -48z m-1189 -17 c-3 -3 -29 -24 -59 -45 -57 -43 -88 -55 -42 -16 39
32 124 84 101 61z m267 -35 c28 -21 64 -45 80 -53 43 -20 57 -41 53 -79 -3
-37 -5 -37 -115 -22 -47 6 -53 4 -73 -19 -12 -14 -28 -23 -35 -21 -7 3 -15 -3
-18 -13 -4 -15 -5 -14 -6 4 -2 36 -43 57 -100 49 -37 -5 -51 -3 -61 9 -11 13
-9 20 10 40 13 14 42 34 66 45 24 12 53 37 68 60 35 53 65 53 131 0z m-1185
-79 c0 -6 -12 -43 -26 -83 -15 -40 -32 -95 -39 -123 -7 -27 -36 -126 -66 -218
-39 -122 -60 -172 -74 -180 -14 -8 -209 -13 -655 -15 -349 -2 -633 -2 -630 1
3 2 70 30 150 62 198 78 248 99 407 169 45 20 85 36 88 36 4 0 30 11 58 24 29
13 106 45 172 71 66 26 128 51 138 56 9 5 43 19 75 30 31 12 81 32 110 45 29
13 55 24 59 24 12 0 178 85 191 98 16 14 42 16 42 3z m760 -1 c0 -5 -5 -10
-11 -10 -5 0 -7 5 -4 10 3 6 8 10 11 10 2 0 4 -4 4 -10z m5068 -6 c34 -7 62
-57 39 -71 -17 -11 -390 -17 -385 -7 23 50 34 70 43 76 12 9 260 10 303 2z
m-364 -29 c-9 -14 -21 -25 -28 -26 -24 -1 -371 2 -372 4 -1 1 -5 12 -8 25 l-7
22 216 0 215 0 -16 -25z m-4749 5 c-3 -5 -12 -10 -18 -10 -7 0 -6 4 3 10 19
12 23 12 15 0z m3065 -88 c-6 -2 -10 -8 -10 -14 0 -6 6 -8 14 -5 8 3 22 -9 35
-31 40 -66 168 -306 175 -329 9 -28 -20 -58 -89 -92 -50 -25 -76 -23 -160 14
-95 41 -217 91 -284 115 -96 36 -230 90 -301 123 -30 14 -69 29 -85 33 -17 4
-34 10 -40 14 -5 5 -32 15 -60 23 -118 35 -268 103 -260 118 4 5 216 9 516 9
440 0 512 2 525 15 17 17 12 46 -11 65 -8 7 -15 20 -15 29 0 9 14 -6 30 -34
16 -27 25 -51 20 -53z m1320 8 l25 -20 -37 0 c-31 0 -38 4 -38 20 0 25 18 25
50 0z m842 -115 c15 -44 28 -80 29 -80 0 0 2 -7 4 -17 2 -9 19 -54 38 -100 19
-45 49 -132 67 -193 17 -60 35 -119 40 -130 5 -11 14 -45 21 -75 7 -30 16 -59
21 -64 11 -14 10 -86 -2 -86 -5 0 -42 -15 -82 -34 -40 -18 -108 -50 -151 -69
-42 -20 -90 -45 -106 -56 -36 -26 -41 -20 -72 79 -13 41 -41 106 -63 143 -51
86 -165 228 -212 264 -21 15 -54 43 -74 61 -21 17 -40 32 -44 32 -12 0 -66 43
-66 52 0 9 14 42 106 235 l52 112 144 4 c79 1 183 3 233 2 l89 0 28 -80z
m-6467 51 c-158 -62 -440 -177 -525 -215 -52 -24 -122 -51 -155 -62 -33 -11
-69 -24 -80 -29 -48 -23 -250 -95 -360 -128 -112 -35 -245 -95 -245 -112 0
-16 30 -30 165 -75 77 -26 187 -64 245 -85 111 -40 236 -82 310 -105 25 -8
122 -41 215 -74 188 -66 463 -159 655 -222 69 -23 131 -46 138 -51 6 -6 12
-23 12 -37 0 -49 -61 -231 -120 -356 -10 -22 -26 -60 -36 -84 -10 -24 -31 -64
-46 -88 l-28 -43 -90 0 c-77 0 -89 -2 -78 -14 7 -8 16 -12 21 -9 4 2 7 0 7 -5
0 -6 -8 -13 -17 -18 -27 -11 -123 -14 -123 -3 0 6 5 7 12 3 7 -5 8 -3 3 6 -6
10 -11 9 -22 -5 -12 -18 -13 -18 -13 2 0 13 -6 20 -15 19 -21 -3 -28 -13 -14
-22 8 -5 10 -3 4 7 -5 8 -6 12 -2 9 11 -10 7 -24 -8 -26 -8 -1 -15 4 -15 11 0
8 -5 17 -12 21 -7 5 -9 2 -5 -9 4 -11 2 -14 -8 -10 -8 3 -12 10 -8 16 3 6 1 7
-5 3 -7 -4 -12 -14 -12 -22 0 -16 -9 -18 -30 -4 -13 8 -12 10 3 10 10 0 17 7
16 18 0 12 -2 13 -6 3 -4 -11 -7 -11 -13 0 -7 10 -12 10 -26 -2 -14 -11 -16
-11 -10 0 7 11 -84 12 -565 6 -316 -4 -577 -9 -580 -11 -12 -7 -400 -7 -407 0
-4 4 -8 410 -10 902 l-3 894 643 1 c524 1 1218 10 1288 17 8 0 -12 -10 -45
-22z m5486 -18 c1 -24 3 -76 5 -117 l4 -73 -47 7 c-76 11 -81 12 -219 20
l-131 7 -21 74 c-37 123 -51 113 161 117 100 1 197 3 215 5 31 2 32 1 33 -40z
m435 28 c4 -11 -125 -298 -142 -315 -3 -4 -27 5 -119 45 -16 7 -42 16 -57 19
l-28 7 0 122 c0 68 3 126 7 129 3 4 80 7 170 7 132 0 165 -3 169 -14z m-7942
-2 l47 -7 -5 -751 c-3 -413 -8 -800 -13 -861 l-8 -110 -335 -2 c-329 -1 -472
7 -478 27 -2 5 -9 10 -15 10 -14 0 -42 60 -62 130 -9 29 -15 135 -18 305 -5
282 4 401 49 650 26 145 36 185 109 420 23 77 46 152 49 168 l6 27 314 0 c172
0 334 -3 360 -6z m7046 -36 c5 -24 17 -65 25 -93 16 -53 10 -65 -32 -65 -53 0
-315 -77 -426 -125 -37 -15 -40 -15 -53 2 -23 29 -54 91 -54 108 0 8 -18 49
-41 92 -22 42 -45 87 -50 100 l-9 23 315 0 314 0 11 -42z m58 -220 c6 -24 18
-73 27 -110 9 -37 22 -89 30 -115 24 -78 16 -89 -68 -97 -151 -14 -213 -34
-300 -97 -49 -36 -53 -33 -102 67 -19 38 -34 65 -34 59 0 -5 16 -44 37 -85 32
-65 40 -75 61 -72 14 1 32 9 41 17 9 8 22 15 29 15 17 0 -26 -55 -55 -71 -13
-7 -24 -18 -24 -25 0 -7 -6 -17 -13 -21 -22 -14 -107 -169 -107 -196 0 -14 -4
-28 -9 -31 -5 -3 -12 -22 -16 -42 -6 -34 -7 -35 -24 -20 -21 19 -83 21 -111 4
-25 -16 -32 -8 -37 44 -15 146 -34 188 -85 188 -17 0 -27 4 -23 10 7 12 3 12
-19 4 -9 -3 -16 -12 -16 -20 0 -15 42 -29 64 -21 18 7 36 -14 42 -50 4 -25 31
-246 38 -318 8 -74 19 -162 23 -180 28 -132 28 -130 -4 -192 -17 -32 -43 -96
-58 -143 -41 -127 -57 -170 -65 -170 -16 0 -140 161 -140 182 0 6 -11 30 -24
52 -63 109 -102 301 -91 450 4 55 11 108 15 116 4 8 11 33 14 55 15 89 41 166
93 270 73 147 88 169 119 186 35 18 84 85 84 114 0 16 16 31 62 58 35 20 70
37 80 37 22 0 65 -81 74 -139 8 -50 -3 -65 -71 -96 -27 -13 -42 -24 -32 -24
21 -1 89 32 105 51 6 8 17 35 23 60 12 45 11 49 -19 107 -18 34 -32 67 -32 74
0 13 171 80 266 104 132 33 210 51 225 52 11 1 20 -12 27 -41z m327 24 c130
-24 282 -74 338 -110 l37 -25 -37 -66 c-20 -36 -56 -105 -80 -153 -23 -49 -48
-88 -55 -88 -7 0 -33 11 -57 25 -57 33 -177 63 -284 71 -82 7 -85 8 -90 33 -3
14 -10 44 -17 66 -13 46 -45 184 -54 233 l-6 34 128 -5 c70 -3 150 -9 177 -15z
m-3632 -74 c45 -22 115 -53 155 -68 l74 -27 -48 -18 c-71 -27 -129 -72 -173
-135 -46 -65 -91 -147 -91 -165 0 -12 -21 -25 -41 -25 -5 0 -9 7 -9 15 0 8 -4
15 -8 15 -4 0 -13 19 -19 43 -7 26 -36 72 -78 122 -63 77 -105 108 -182 136
-40 14 -42 25 -6 34 15 3 50 17 78 30 28 12 79 30 113 39 35 9 75 22 90 31 40
21 55 19 145 -27z m-1326 -71 c-2 -6 -13 -17 -25 -25 -20 -13 -22 -13 -17 2 3
9 7 23 10 31 2 9 11 12 20 9 9 -4 14 -11 12 -17z m5531 -140 c128 -125 207
-245 261 -393 25 -70 34 -117 57 -303 9 -70 -15 -248 -47 -350 -46 -146 -135
-295 -244 -406 -107 -110 -139 -132 -159 -116 -12 10 -13 9 -9 -7 3 -14 -1
-22 -16 -27 -12 -3 -21 -10 -21 -15 0 -13 -129 -74 -195 -92 -200 -55 -330
-72 -491 -66 -97 4 -142 11 -244 40 -69 20 -156 44 -194 53 l-68 18 5 54 c3
30 13 84 21 121 9 37 23 107 31 157 9 49 18 91 20 93 2 2 32 -11 67 -29 35
-18 79 -41 98 -50 60 -31 260 -58 405 -56 146 3 213 15 314 56 l69 29 62 -84
c35 -46 65 -84 67 -84 6 0 -3 13 -63 99 l-52 73 54 37 c58 39 124 113 154 171
24 46 59 146 65 185 3 17 10 54 15 83 9 51 0 166 -20 257 -29 132 -141 284
-257 351 -18 10 -33 21 -33 24 0 8 132 270 150 297 l14 21 55 -35 c31 -19 89
-67 129 -106z m-4874 96 l39 -6 -64 -24 c-71 -27 -127 -71 -107 -85 10 -6 9
-11 -3 -18 -9 -5 -22 -23 -29 -40 -7 -16 -17 -30 -23 -30 -15 0 -47 31 -47 46
0 16 -53 34 -101 34 -21 0 -40 4 -44 9 -3 6 4 32 17 60 l21 50 106 4 c58 1
126 4 151 5 25 1 62 -1 84 -5z m1405 -8 c140 -3 257 -8 260 -11 9 -9 -101
-104 -127 -111 -13 -3 -40 0 -60 6 -21 6 -89 13 -152 16 -149 5 -157 7 -183
38 -12 14 -40 37 -61 52 l-40 26 55 -5 c30 -3 168 -8 308 -11z m-1905 -26 c11
-59 10 -61 -31 -41 -27 14 -37 26 -38 46 -1 23 3 26 31 26 27 0 32 -4 38 -31z
m109 -11 c-7 -52 -9 -54 -27 -39 -16 13 -32 -1 -21 -19 3 -5 1 -10 -4 -10 -7
0 -11 23 -11 55 l0 55 34 0 34 0 -5 -42z m471 -75 c5 -12 -9 -33 -47 -72 -29
-31 -68 -75 -87 -99 -37 -49 -50 -49 -26 -1 9 18 16 36 16 41 0 4 8 16 18 26
9 10 37 42 61 70 49 57 56 60 65 35z m173 -25 c37 -24 69 -46 71 -49 2 -4 12
-17 23 -30 29 -33 24 -38 -35 -32 -29 3 -77 0 -105 -7 -63 -15 -101 -7 -101
20 0 23 -4 24 -30 10 -13 -7 -21 -7 -25 0 -3 6 1 13 11 17 9 3 27 30 40 60 21
47 27 53 53 53 18 0 58 -17 98 -42z m-310 -32 c-37 -43 -58 -79 -67 -112 -7
-27 -14 -44 -17 -38 -2 6 3 37 12 70 12 47 24 68 59 102 67 63 75 51 13 -22z
m1105 54 c48 -14 97 -55 114 -97 18 -43 19 -42 -23 -36 -31 4 -43 0 -67 -22
-27 -25 -29 -25 -47 -9 -17 15 -41 18 -158 18 -157 1 -157 1 -80 70 80 73 174
100 261 76z m333 -11 c24 1 27 -1 13 -9 -23 -14 -61 -77 -53 -90 3 -6 -4 -10
-18 -10 -36 0 -53 38 -37 85 11 33 15 36 39 30 14 -3 40 -6 56 -6z m2709 -84
c27 -35 86 -166 86 -190 0 -7 -22 -15 -56 -19 -50 -6 -163 -43 -251 -82 -17
-8 -35 -14 -41 -14 -5 0 -32 -20 -58 -45 -27 -24 -74 -59 -104 -77 -43 -25
-70 -52 -116 -118 -34 -47 -64 -93 -67 -102 -4 -10 -21 -42 -40 -70 -18 -29
-42 -72 -53 -95 -17 -38 -34 -55 -34 -35 0 4 -8 57 -18 117 -23 135 -18 249
13 271 24 18 65 17 89 -1 11 -8 23 -15 26 -15 8 0 28 39 76 150 20 47 51 108
69 135 32 48 73 93 78 84 1 -2 21 -32 44 -66 44 -64 44 -75 -2 -86 -11 -2 -5
-3 14 -1 19 2 38 7 43 12 4 4 -13 42 -38 82 -43 69 -45 77 -32 99 28 52 159
98 279 100 65 1 67 0 93 -34z m191 7 c28 -9 56 -17 64 -18 7 -2 18 -7 23 -12
4 -4 7 -98 6 -208 l-3 -199 -24 39 c-13 21 -42 59 -63 85 -22 25 -51 59 -64
75 -13 15 -24 32 -24 36 0 11 -81 194 -91 205 -5 5 -9 12 -9 17 0 12 130 -2
185 -20z m-4550 -48 l60 -23 -52 0 c-41 -1 -57 4 -77 23 -30 27 -34 41 -8 31
9 -4 44 -18 77 -31z m380 -28 c51 -19 76 -20 111 -1 40 21 80 19 105 -6 18
-18 19 -28 13 -77 -10 -88 -37 -131 -114 -185 -42 -29 -120 -21 -120 13 0 11
-4 22 -10 25 -5 3 -23 35 -41 71 -24 52 -38 69 -65 80 -39 17 -42 26 -13 55
11 11 18 27 15 35 -5 13 2 14 37 10 23 -3 60 -12 82 -20z m1293 2 c-5 -15 -23
-11 -26 6 -2 11 2 14 13 10 9 -4 14 -11 13 -16z m-103 -32 c-12 -84 -47 -214
-72 -265 -33 -69 -51 -91 -74 -91 -10 0 -38 -19 -61 -43 -24 -23 -60 -50 -81
-60 -50 -24 -132 -34 -142 -17 -14 22 -19 154 -6 146 6 -4 11 -20 11 -35 0
-19 8 -32 24 -40 39 -21 60 -11 60 29 1 35 1 35 47 36 48 0 71 12 124 59 17
14 40 33 53 42 12 8 22 19 22 24 0 4 11 19 24 32 31 31 46 85 46 164 0 51 3
61 15 57 10 -4 14 -16 10 -38z m-312 2 c21 -10 41 -26 44 -34 9 -23 -24 -97
-61 -137 -38 -42 -70 -47 -135 -21 -47 18 -66 61 -57 122 9 51 -6 72 -29 41
-12 -17 -16 -19 -11 -6 3 10 6 23 6 27 0 13 78 28 145 28 38 -1 74 -8 98 -20z
m177 -8 c-6 -4 -11 -16 -10 -26 5 -42 0 -52 -20 -47 -11 3 -17 9 -14 14 7 13
-25 24 -37 12 -11 -11 5 -73 22 -84 19 -11 2 -39 -23 -39 -22 0 -23 3 -21 82
l1 83 34 3 c18 2 37 7 42 12 5 5 15 6 23 3 11 -4 11 -8 3 -13z m3465 -67 c38
-37 95 -124 139 -210 9 -18 23 -70 32 -115 27 -142 2 -289 -72 -420 -19 -33
-34 -63 -34 -68 0 -15 -67 -92 -96 -109 -58 -35 -71 -35 -84 1 -7 18 -19 49
-26 68 -24 62 -14 889 11 930 8 14 83 -30 130 -77z m-4053 -10 c6 -59 52 -161
122 -272 53 -83 86 -161 81 -188 -2 -16 -18 -68 -35 -117 -23 -69 -27 -92 -18
-103 8 -10 14 -11 22 -3 18 18 28 11 21 -17 -8 -36 -34 -57 -124 -99 -69 -32
-77 -33 -110 -22 -20 7 -42 11 -50 9 -8 -1 -32 5 -53 15 -39 18 -45 29 -50 94
-2 28 -9 38 -35 50 -40 18 -54 57 -48 127 5 52 45 141 158 353 25 47 50 105
57 130 33 129 51 142 62 43z m163 -87 c11 -16 25 -38 32 -49 6 -11 17 -24 25
-29 10 -7 8 -8 -7 -6 -11 2 -21 12 -23 22 -2 11 -19 34 -38 51 -30 28 -34 39
-34 82 0 69 14 76 20 11 3 -31 14 -66 25 -82z m675 124 c0 -5 -2 -10 -4 -10
-3 0 -8 5 -11 10 -3 6 -1 10 4 10 6 0 11 -4 11 -10z m1610 -16 c0 -3 -11 -29
-24 -57 -64 -139 -89 -269 -89 -462 0 -144 3 -182 16 -215 4 -8 15 -40 27 -71
11 -30 35 -80 53 -110 17 -30 38 -66 44 -81 l13 -28 -468 0 -468 0 -22 25
c-12 14 -22 28 -22 31 0 3 -18 32 -41 65 -22 33 -50 83 -62 111 -17 42 -18 51
-6 59 11 7 11 9 -3 9 -10 0 -22 17 -33 48 -9 26 -20 54 -24 62 -5 8 -23 62
-40 119 -30 97 -32 106 -16 117 9 7 83 34 163 60 81 25 215 69 297 97 159 53
520 172 620 205 66 21 85 25 85 16z m-3121 -48 c-13 -14 -33 9 -25 30 6 16 8
16 21 -2 8 -12 10 -23 4 -28z m5708 2 c6 -7 18 -47 27 -88 14 -62 18 -152 23
-502 7 -484 13 -450 -78 -424 -120 33 -433 137 -443 147 -7 6 42 169 56 187 6
6 7 12 3 12 -4 0 -3 6 3 13 20 23 33 238 22 359 l-10 112 31 32 c31 32 109 74
214 115 33 13 71 29 85 36 32 16 55 16 67 1z m-4193 -40 c39 -135 102 -333
116 -365 21 -48 18 -51 -25 -23 -16 11 -40 20 -53 20 -13 0 -43 12 -68 26 -37
22 -45 23 -50 11 -3 -8 6 -33 21 -55 15 -22 27 -46 29 -54 1 -7 16 -48 34 -90
19 -47 37 -110 43 -157 11 -89 40 -173 47 -133 5 32 21 27 37 -12 8 -19 21
-39 29 -43 22 -13 24 -46 2 -65 -10 -10 -23 -18 -28 -18 -5 0 -8 -6 -6 -14 2
-8 -1 -16 -7 -18 -5 -2 -11 7 -13 20 -5 30 -22 28 -22 -3 0 -14 -4 -25 -10
-25 -14 0 -68 98 -80 145 -14 52 -31 102 -69 200 -35 90 -37 103 -16 85 8 -7
15 -18 15 -25 0 -15 38 -65 50 -65 4 0 0 24 -11 53 -18 51 -41 77 -65 77 -6 0
-17 7 -24 15 -40 48 -35 -19 7 -120 14 -33 41 -109 59 -169 20 -65 46 -127 64
-152 56 -79 61 -106 67 -379 5 -225 4 -252 -11 -264 -14 -12 -21 -9 -56 29
-22 24 -40 51 -40 59 0 21 36 90 61 117 21 22 26 48 8 42 -8 -3 -58 -89 -85
-146 -1 -2 -43 38 -93 89 l-91 93 0 89 c0 49 -9 207 -21 351 -20 261 -19 335
8 534 6 47 29 57 39 17 3 -13 12 -29 20 -36 27 -22 49 14 63 103 7 46 26 125
42 176 27 83 32 92 55 92 13 0 26 -6 28 -12z m-1422 -107 c12 -20 30 -46 40
-57 17 -19 17 -22 4 -27 -9 -4 -13 -13 -10 -22 5 -11 2 -14 -10 -9 -17 7 -21
-3 -8 -24 10 -15 66 -32 105 -32 l28 0 -22 23 c-15 15 -23 18 -26 10 -3 -7 -9
-13 -15 -13 -6 0 -7 7 -4 16 4 9 1 24 -6 32 -11 14 -10 15 7 8 11 -5 30 -11
43 -14 17 -3 21 -9 17 -26 -4 -12 -3 -16 2 -9 10 14 44 23 101 26 47 3 55 -12
22 -40 -11 -10 -20 -25 -20 -35 0 -27 -18 -31 -42 -9 -23 22 -43 27 -52 12 -3
-5 4 -11 15 -14 12 -3 18 -10 14 -16 -3 -6 1 -11 9 -11 23 0 9 -25 -22 -39
-18 -9 -28 -9 -30 -2 -2 6 -12 11 -22 11 -9 0 -23 7 -30 15 -9 10 -9 15 -1 15
6 0 11 5 11 10 0 6 -9 10 -21 10 -15 0 -19 5 -15 15 3 9 0 15 -10 15 -17 0
-134 120 -134 138 0 7 4 11 9 8 10 -6 24 35 15 44 -3 3 -12 -4 -20 -14 -12
-17 -13 -16 -10 18 1 21 7 41 13 44 5 4 16 18 23 32 l14 25 8 -39 c5 -22 18
-55 30 -75z m1028 89 c0 -14 -37 -50 -52 -50 -6 0 1 14 17 30 31 33 35 35 35
20z m-1205 -49 c-4 -19 -1 -34 9 -44 18 -18 21 -37 5 -37 -21 0 -41 72 -30
108 1 1 6 2 12 2 6 0 8 -11 4 -29z m1285 -20 c0 -5 -13 -14 -29 -21 -22 -9
-34 -9 -50 0 -26 13 -26 14 0 45 l22 24 28 -20 c16 -11 29 -24 29 -28z m-780
20 c0 -5 -9 -19 -21 -32 l-20 -24 17 33 c19 33 24 38 24 23z m-561 -58 c8 -27
29 -75 47 -109 19 -33 34 -68 34 -76 0 -25 267 -260 384 -337 28 -19 76 -52
106 -73 30 -21 75 -48 100 -59 51 -25 56 -17 -58 -91 -35 -23 -141 -117 -235
-210 -95 -92 -175 -168 -179 -168 -4 0 -8 107 -10 238 l-3 237 -29 58 c-28 55
-49 70 -60 45 -3 -10 -8 -9 -15 3 -6 9 -22 20 -36 23 -20 5 -25 12 -25 39 0
42 27 129 43 139 19 12 -11 27 -58 29 -68 2 -89 12 -113 57 -33 59 -43 130
-23 162 31 49 102 140 109 140 4 0 14 -21 21 -47z m1259 -3 c15 0 15 -2 2 -10
-18 -12 -61 -13 -87 -3 -15 6 -13 9 12 14 17 4 36 5 43 3 8 -2 21 -4 30 -4z
m-1139 -36 c2 -10 11 -24 20 -31 14 -11 12 -12 -14 -7 -45 10 -57 22 -42 45
14 23 31 20 36 -7z m1026 -44 c3 -5 1 -10 -4 -10 -6 0 -11 5 -11 10 0 6 2 10
4 10 3 0 8 -4 11 -10z m3194 -9 c8 -5 16 -32 18 -63 4 -44 0 -62 -24 -108 -33
-63 -67 -89 -149 -115 -63 -19 -124 -67 -124 -97 0 -47 158 -208 204 -208 55
0 187 115 261 229 l29 43 22 -48 c37 -82 44 -117 44 -207 0 -58 -4 -88 -12
-94 -7 -4 -98 -11 -203 -14 -254 -10 -427 8 -539 55 l-39 16 7 58 c11 96 46
208 83 264 19 29 43 69 53 89 23 43 110 116 194 160 87 47 144 60 175 40z
m-4153 -78 c-3 -3 -13 -2 -23 2 -17 7 -17 8 2 15 19 7 34 -5 21 -17z m1184
-150 c-15 -121 -9 -409 14 -657 9 -98 15 -180 13 -183 -4 -4 -81 65 -171 152
-28 28 -103 95 -166 150 -63 55 -126 110 -140 123 -14 12 -28 22 -32 22 -5 0
-16 8 -27 19 -18 18 -17 19 28 35 72 25 161 89 216 153 28 32 77 85 111 118
33 33 82 86 109 118 26 32 50 55 53 53 2 -3 -1 -49 -8 -103z m-1084 31 c22
-13 62 -27 87 -30 43 -6 47 -9 47 -34 0 -15 -3 -41 -6 -58 l-6 -31 -67 51
c-36 29 -91 72 -121 96 l-55 45 40 -7 c22 -4 58 -19 81 -32z m160 9 c-10 -10
-19 5 -10 18 6 11 8 11 12 0 2 -7 1 -15 -2 -18z m629 -120 c-4 -39 -13 -80
-20 -90 -14 -17 -14 -17 -15 6 0 14 -5 39 -11 56 -15 39 -6 89 23 135 l23 35
3 -35 c2 -19 1 -67 -3 -107z m-1070 0 c-2 -27 -6 -88 -10 -138 -3 -49 -8 -106
-10 -125 -4 -28 -1 -24 15 20 10 30 19 65 19 78 1 28 7 27 54 -6 35 -24 48
-41 79 -104 11 -25 10 -431 -2 -463 -5 -14 -20 -36 -33 -48 -13 -12 -47 -51
-76 -87 -29 -36 -68 -83 -88 -105 -19 -21 -43 -55 -53 -75 -10 -19 -27 -44
-39 -54 l-21 -19 0 64 c1 62 9 184 29 410 6 71 14 115 26 133 10 14 15 35 12
47 -3 12 0 22 9 26 19 7 19 63 0 63 -8 0 -23 -10 -33 -23 -23 -28 -128 -117
-138 -117 -5 0 -17 -8 -28 -17 -19 -17 -19 -17 -12 7 4 14 18 42 32 63 21 33
26 37 40 25 14 -11 16 -10 10 13 -6 25 24 100 95 234 57 108 91 183 95 212 9
54 32 41 28 -14z m476 -40 c14 -16 45 -43 67 -61 55 -44 58 -74 5 -41 -21 13
-49 34 -63 46 -14 13 -28 23 -31 23 -4 0 -9 14 -11 30 -6 37 0 38 33 3z m282
-270 c-3 -10 -12 -27 -20 -38 -7 -11 -13 -28 -13 -38 0 -17 6 -19 60 -15 39 3
66 11 79 22 23 21 23 21 83 -36 34 -32 34 -33 4 -73 -47 -62 -69 -277 -56
-555 5 -120 -4 -148 -65 -194 -44 -34 -57 -28 -18 8 15 14 24 26 20 26 -5 0
-15 -7 -24 -16 -24 -24 -54 -13 -90 34 -25 33 -33 54 -33 84 0 31 -3 39 -14
35 -8 -3 -27 6 -42 20 l-27 25 12 107 c21 191 38 277 70 352 40 94 39 102 -3
49 -51 -65 -63 -111 -91 -342 -18 -155 -21 -164 -44 -144 -10 9 -37 27 -62 41
-24 13 -60 33 -79 44 -35 20 -86 64 -127 111 l-22 26 22 24 c13 14 46 59 74
100 28 42 77 98 109 125 32 28 85 74 117 104 32 30 65 60 75 67 16 11 105 63
109 64 1 0 0 -8 -4 -17z m71 -19 c28 -11 17 -24 -21 -24 -35 0 -36 1 -17 15
23 17 19 16 38 9z m4687 -55 c79 -27 191 -63 248 -79 57 -17 110 -35 118 -42
12 -10 14 -94 11 -557 -4 -705 -7 -823 -19 -815 -16 9 -169 206 -169 217 0 5
-12 24 -27 42 -16 18 -44 56 -63 84 -19 28 -75 101 -125 162 -49 61 -94 119
-100 128 -5 9 -35 50 -66 91 -108 145 -287 418 -288 438 -1 8 31 44 70 80 81
76 172 185 212 255 15 26 34 47 41 47 7 0 78 -23 157 -51z m-6711 -23 c0 -3
-4 -8 -10 -11 -5 -3 -10 -1 -10 4 0 6 5 11 10 11 6 0 10 -2 10 -4z m5485 -12
c55 3 145 8 200 11 l100 6 -40 -23 c-33 -18 -60 -22 -156 -26 -115 -4 -253 11
-265 29 -3 5 -10 6 -16 3 -6 -4 -8 -2 -4 4 4 7 17 7 43 0 21 -6 80 -8 138 -4z
m-5292 -51 c-7 -2 -19 -2 -25 0 -7 3 -2 5 12 5 14 0 19 -2 13 -5z m105 0 c-16
-2 -40 -2 -55 0 -16 2 -3 4 27 4 30 0 43 -2 28 -4z m75 0 c-7 -2 -21 -2 -30 0
-10 3 -4 5 12 5 17 0 24 -2 18 -5z m-607 -20 l592 -6 -40 -51 c-56 -72 -199
-219 -245 -252 -21 -15 -54 -42 -73 -59 -82 -74 -179 -131 -290 -174 -67 -25
-75 -31 -78 -57 -2 -16 -15 -41 -29 -56 -39 -41 -23 -51 73 -46 46 2 84 1 84
-4 0 -4 -4 -8 -9 -8 -5 0 -48 -23 -94 -51 -76 -45 -167 -130 -167 -156 0 -5
-18 -39 -40 -77 -22 -37 -40 -74 -40 -81 0 -7 -6 -18 -14 -24 -8 -7 -18 -26
-21 -42 -4 -17 -22 -53 -41 -82 -19 -28 -34 -55 -34 -59 0 -4 -13 -37 -30 -73
-16 -36 -30 -68 -30 -70 0 -6 -68 -153 -81 -175 -5 -8 -15 -28 -23 -45 -62
-135 -109 -224 -119 -228 -7 -2 -146 -2 -310 1 l-297 5 0 886 c1 880 4 963 34
983 14 10 553 10 1322 1z m2485 -28 c22 -19 43 -35 47 -35 12 0 146 -136 150
-151 2 -7 11 -18 20 -25 15 -11 13 -17 -23 -55 -22 -23 -60 -60 -85 -83 -24
-22 -55 -51 -67 -63 -13 -13 -32 -27 -43 -33 -10 -6 -35 -35 -56 -65 -20 -30
-38 -55 -41 -55 -2 0 -4 21 -2 48 1 26 -1 54 -4 62 -22 62 -27 95 -27 180 0
70 6 115 20 160 11 34 20 68 20 74 0 14 38 76 46 76 4 0 24 -16 45 -35z m2314
-12 l35 -46 -31 -56 c-18 -31 -49 -108 -69 -172 -41 -127 -41 -137 -9 -366 7
-51 10 -95 7 -98 -3 -4 -22 0 -41 8 -33 14 -35 18 -47 89 -12 78 -30 125 -45
120 -6 -1 -8 -25 -7 -52 3 -39 0 -51 -12 -56 -37 -14 -136 58 -136 99 0 16 5
18 30 13 17 -3 44 -9 60 -12 19 -4 30 -2 30 5 0 6 -6 11 -14 11 -7 0 -19 7
-26 15 -7 8 -26 15 -42 15 -41 0 -76 19 -57 31 25 16 -11 30 -62 25 -41 -4
-53 -1 -90 27 -132 94 -321 276 -385 370 -47 70 -57 67 266 67 267 0 314 -4
280 -25 -5 -3 -10 -22 -10 -40 0 -38 20 -55 64 -55 15 0 36 -13 58 -37 58 -63
92 -93 108 -93 14 1 3 13 -35 38 -6 4 -25 26 -43 49 -24 31 -45 46 -75 54 -23
6 -44 10 -46 9 -2 -1 -8 5 -13 14 -10 18 22 80 45 90 7 2 71 5 144 5 l132 1
36 -47z m-6261 28 c4 -5 2 -12 -4 -16 -7 -4 -10 -312 -10 -921 l0 -914 -445 0
-445 0 0 925 0 925 193 2 c559 8 706 8 711 -1z m6344 -183 c7 -7 12 -38 12
-71 l0 -59 -32 7 c-69 15 -81 23 -74 51 9 36 47 84 66 84 9 0 21 -5 28 -12z
m1589 -100 c21 -29 43 -61 49 -73 23 -44 41 -72 84 -132 25 -34 61 -85 80
-114 19 -28 63 -89 98 -136 62 -86 71 -103 51 -103 -5 0 -7 -4 -4 -10 3 -5 1
-19 -5 -31 -14 -26 -85 -99 -96 -99 -5 0 -17 -7 -27 -14 -17 -13 -15 -19 23
-96 22 -46 40 -89 40 -96 0 -7 14 -25 30 -41 17 -15 30 -33 30 -40 0 -6 28
-47 63 -89 34 -43 73 -95 87 -115 53 -77 80 -116 120 -169 22 -30 48 -68 58
-84 9 -15 34 -49 55 -74 20 -26 37 -52 37 -59 0 -10 -53 -13 -239 -13 l-238 0
-2 52 c-1 56 -4 64 -21 53 -8 -5 -10 -21 -6 -44 3 -20 2 -42 -3 -49 -6 -9 -70
-12 -287 -10 l-279 3 -3 315 c-2 307 -3 315 -23 333 -17 13 -25 15 -36 6 -11
-10 -13 -46 -10 -183 1 -94 0 -209 -3 -256 -4 -51 -7 24 -8 190 -1 324 -7 399
-37 459 l-22 45 2 -81 c1 -60 6 -86 19 -98 21 -22 20 -23 -8 -18 -13 3 -27 0
-30 -6 -11 -17 5 -80 20 -83 12 -3 15 -49 15 -288 0 -157 -1 -297 -1 -312 l0
-28 -299 0 -300 0 -31 68 c-29 61 -66 136 -155 312 -53 105 -180 367 -228 471
-25 53 -50 99 -56 103 -12 8 -15 86 -5 124 5 17 14 22 40 22 30 0 34 4 43 38
6 20 11 43 11 51 0 23 39 78 59 84 24 6 34 61 21 107 -11 36 -3 200 9 200 4 0
42 -12 86 -26 102 -34 290 -82 338 -87 20 -2 20 -2 6 -30 -11 -21 -11 -21 11
1 14 15 31 22 48 20 22 -3 29 -12 48 -67 12 -35 29 -70 37 -79 11 -10 9 4 -9
52 -13 37 -24 73 -24 79 0 9 40 17 133 26 72 7 149 14 169 16 l38 4 2 -191 c2
-142 6 -192 16 -196 8 -2 12 9 12 37 0 23 2 41 4 41 2 0 13 3 23 6 17 5 17 5
0 -6 -13 -9 -17 -22 -16 -56 2 -29 7 -43 14 -40 7 2 12 -1 13 -7 0 -7 3 -37 6
-67 l5 -55 -13 50 -13 50 -5 -35 c-3 -19 -3 -37 1 -40 3 -3 7 -16 9 -30 25
-183 27 -195 45 -198 21 -4 20 -24 21 427 l1 343 55 18 c75 24 118 44 160 74
19 14 40 25 47 26 6 0 29 -23 50 -52z m-4869 -5 c-8 -10 -37 -45 -64 -78 -70
-85 -74 -89 -74 -73 0 12 137 168 148 168 3 0 -2 -8 -10 -17z m163 -117 c25
-20 50 -36 54 -36 20 0 116 -76 139 -110 l24 -37 -15 -84 c-14 -77 -20 -90
-74 -161 -32 -43 -70 -99 -85 -125 -14 -27 -48 -79 -74 -118 -26 -38 -64 -96
-85 -127 -23 -37 -44 -58 -56 -58 -21 0 -79 73 -79 99 0 9 -7 29 -15 45 -8 15
-15 35 -15 42 0 8 -7 14 -15 14 -17 0 -21 26 -4 32 7 2 7 11 0 28 -6 15 -10
18 -10 9 -1 -9 -7 -29 -15 -45 -8 -16 -24 -71 -37 -121 -27 -109 -39 -116
-100 -54 -44 44 -45 50 -29 230 8 87 14 112 41 159 17 31 40 81 50 111 11 31
32 69 48 86 15 16 37 46 47 64 23 41 36 58 133 168 l74 83 26 -29 c14 -15 47
-45 72 -65z m1046 76 c6 -11 14 -45 17 -78 4 -32 11 -99 16 -149 6 -49 19
-173 30 -274 11 -102 27 -214 35 -250 26 -116 47 -263 52 -368 l6 -103 -31 0
c-27 0 -32 5 -47 48 -9 26 -20 54 -25 63 -121 236 -160 308 -203 377 -62 99
-139 209 -180 255 -68 78 -107 137 -107 163 0 10 24 42 54 73 30 31 69 72 88
91 56 59 168 148 168 135 0 -4 7 -2 15 5 9 7 31 13 50 12 19 -1 35 3 35 8 0
16 14 11 27 -8z m225 -239 c31 -58 72 -225 93 -383 20 -150 19 -176 -6 -216
-25 -42 -43 -43 -65 -4 -10 16 -37 43 -61 60 -24 17 -47 39 -52 48 -17 32 -83
587 -81 678 1 26 138 -120 172 -183z m-3096 8 c-7 -10 -66 -33 -66 -25 0 4 57
32 68 34 2 0 1 -4 -2 -9z m2109 -101 c3 -5 12 -10 20 -10 16 0 65 -43 65 -57
0 -5 9 -18 21 -29 12 -10 28 -32 36 -48 l15 -29 68 68 c66 66 67 66 74 41 19
-77 37 -1236 19 -1236 -5 0 -21 24 -37 53 -33 59 -62 100 -122 172 -23 28 -45
61 -49 75 -9 31 -43 80 -55 80 -5 0 -36 27 -70 60 l-60 61 0 112 c0 62 5 130
11 152 8 33 19 309 19 503 0 35 3 42 19 42 11 0 23 -4 26 -10z m390 -147 c16
-26 50 -72 75 -102 26 -31 55 -69 66 -86 10 -16 33 -48 49 -71 35 -46 160
-296 205 -410 l30 -75 -30 -29 c-17 -17 -39 -30 -50 -30 -24 0 -29 -8 -36 -67
-5 -43 -12 -68 -33 -113 -12 -25 -13 -420 -2 -495 19 -123 30 -305 20 -338 -5
-18 -16 -65 -24 -104 -8 -40 -24 -87 -36 -105 -11 -18 -18 -24 -15 -13 3 11 1
46 -4 79 -8 48 -22 78 -84 170 -90 133 -111 197 -149 461 -14 91 -16 209 -16
686 0 317 -3 601 -6 632 -4 32 -3 57 2 57 4 -1 21 -22 38 -47z m-479 -283 c-3
-52 -10 -160 -15 -240 -5 -80 -14 -325 -21 -545 -11 -413 -21 -512 -69 -671
-14 -50 -21 -59 -46 -66 -19 -5 -46 -28 -75 -64 l-45 -57 -3 32 c-2 18 1 51 5
74 5 23 6 78 2 122 -7 88 -7 90 11 225 7 52 13 160 14 240 0 146 -3 172 -54
385 -11 44 -26 110 -34 147 -9 37 -31 106 -51 154 -41 103 -43 115 -12 86 41
-39 47 -35 120 78 9 14 34 50 56 80 23 30 50 72 61 92 26 48 56 92 105 155
l40 50 8 -91 c4 -50 6 -134 3 -186z m4974 153 c28 -32 59 -71 67 -88 9 -16 33
-50 53 -75 21 -25 62 -81 91 -125 62 -92 102 -146 141 -193 l28 -33 0 -194 0
-195 -22 12 c-12 7 -31 24 -43 38 -11 14 -34 39 -51 55 -17 17 -35 41 -39 54
-6 18 -9 21 -16 10 -7 -11 -8 -9 -7 6 3 21 -84 149 -217 318 -102 130 -112
145 -163 245 -41 80 -45 102 -19 102 7 0 40 27 72 60 33 33 63 60 67 60 3 0
30 -26 58 -57z m-3916 -240 c26 -26 26 -28 9 -40 -29 -22 -48 -12 -51 30 -4
44 6 46 42 10z m-1506 -131 c18 -41 31 -76 29 -79 -5 -4 -126 15 -139 23 -6 4
21 85 43 126 5 10 9 26 10 35 0 13 3 11 12 -7 6 -14 26 -58 45 -98z m2556
-214 c-3 -4 4 -8 15 -8 14 0 21 -6 21 -19 0 -11 6 -26 13 -33 17 -17 47 -93
47 -118 0 -11 20 -58 45 -105 80 -151 100 -239 90 -399 -7 -113 -7 -115 -46
-166 -22 -29 -42 -64 -46 -79 -3 -14 -14 -42 -25 -61 -10 -19 -18 -42 -18 -50
0 -25 -43 -165 -53 -171 -5 -4 -9 -18 -9 -33 0 -15 -6 -26 -14 -26 -8 0 -14
-4 -14 -10 0 -5 7 -7 15 -4 16 7 21 -11 5 -21 -5 -3 -7 -12 -3 -20 5 -14 -14
-21 -42 -15 -5 1 -7 -2 -3 -6 4 -4 3 -13 -4 -21 -8 -11 -8 -17 2 -26 10 -10
12 -8 6 7 -6 16 -4 17 9 6 15 -12 15 -14 0 -23 -9 -5 -23 -6 -31 -3 -8 3 -14
1 -14 -4 0 -6 5 -10 10 -10 6 0 10 -5 10 -11 0 -5 -4 -8 -8 -5 -5 3 -9 -1 -9
-9 0 -8 7 -17 16 -20 13 -5 14 -7 1 -15 -8 -6 -10 -10 -4 -10 11 0 11 -23 1
-50 -13 -36 -41 -172 -52 -260 -12 -87 -13 -70 -8 195 2 160 8 305 13 322 5
18 5 35 0 38 -4 2 -8 48 -9 101 -1 61 2 94 8 90 6 -4 7 4 1 23 -5 19 -4 33 3
41 9 10 9 11 0 6 -8 -5 -11 108 -12 457 0 255 2 473 5 483 3 10 20 26 37 35
34 17 59 21 51 7z m-2016 -66 c26 -28 41 -51 37 -60 -3 -9 -10 -35 -15 -59 -9
-39 -36 -127 -114 -368 -14 -44 -23 -66 -21 -50 16 95 24 233 25 402 1 105 4
194 7 197 8 8 29 -9 81 -62z m4032 -256 c15 -15 12 -26 -5 -26 -13 0 -15 23
-13 158 l2 157 3 -140 c2 -77 8 -144 13 -149z m-3174 209 c3 -14 3 -46 -1 -71
-14 -95 -27 -98 -43 -9 -7 35 -15 71 -18 79 -5 13 -1 15 48 25 4 0 10 -10 14
-24z m-82 -205 c35 -105 58 -166 66 -175 4 -5 14 -30 21 -54 20 -66 27 -30 34
180 4 101 9 186 11 188 15 16 19 -39 22 -250 3 -211 1 -239 -12 -239 -9 0 -16
4 -16 9 0 11 -72 2 -80 -9 -3 -4 -31 -9 -62 -12 l-57 -5 -7 55 c-8 63 -1 177
22 342 22 167 26 178 35 90 4 -41 14 -95 23 -120z m-1261 126 c-4 -6 0 -5 9 2
10 8 19 9 22 3 4 -5 -3 -13 -15 -16 -14 -5 -18 -10 -11 -17 8 -8 16 -6 27 6 9
9 21 16 27 16 6 0 9 -3 6 -6 -4 -3 -2 -19 2 -35 5 -18 5 -27 -1 -24 -5 4 -9
12 -9 20 0 8 -5 17 -10 20 -6 4 -9 1 -8 -7 2 -8 -6 -12 -22 -12 -28 2 -74 -41
-66 -61 3 -9 -8 -15 -32 -19 -20 -4 -49 -9 -64 -12 -20 -4 -26 -2 -24 10 1 9
8 22 15 29 11 10 13 8 8 -12 -5 -18 -3 -21 6 -12 9 9 9 16 -1 31 -6 10 -9 26
-6 35 4 10 0 15 -11 15 -13 0 -15 3 -7 13 7 8 7 18 2 27 -15 24 -12 29 23 32
49 5 147 -14 140 -26z m603 -79 c14 -40 48 -124 75 -187 26 -63 68 -165 94
-226 25 -61 57 -126 70 -144 13 -18 22 -36 20 -40 -6 -9 30 -84 59 -125 11
-16 28 -42 36 -57 8 -15 33 -57 54 -94 44 -75 60 -143 51 -222 -7 -54 -22 -72
-63 -72 -16 0 -20 8 -21 48 -1 26 -5 63 -9 82 -7 30 -12 35 -36 33 -43 -3
-108 -69 -133 -133 -33 -84 -43 -130 -53 -248 -14 -158 10 -272 81 -382 20
-32 35 -61 32 -63 -3 -3 -2 -11 2 -17 6 -9 10 -9 16 1 6 10 10 9 15 -6 4 -11
29 -41 56 -67 51 -50 55 -57 36 -76 -8 -8 -17 -8 -32 -1 -19 9 -20 9 -3 -4 20
-17 22 -27 4 -27 -20 0 -207 205 -236 259 -8 14 -25 39 -38 55 -14 17 -50 82
-80 145 -50 107 -69 158 -147 400 -15 46 -54 139 -87 207 -32 68 -59 130 -59
139 0 8 9 41 19 72 11 32 25 87 31 123 21 131 33 188 72 330 32 118 91 314
113 379 9 25 33 -7 61 -82z m-1180 -319 c-13 -772 -19 -938 -30 -938 -6 0 -4
-5 4 -11 11 -7 4 -9 -28 -6 -23 3 -40 2 -37 -2 7 -6 13 -8 45 -10 15 -1 20 -8
20 -27 l0 -26 -32 27 c-21 18 -33 23 -38 15 -5 -7 -8 -2 -8 11 0 13 -5 42 -10
64 -19 68 -32 251 -32 437 l0 176 -32 27 c-18 14 -41 33 -52 42 -15 12 -18 24
-13 72 5 57 19 91 120 286 106 204 117 225 124 225 3 0 3 -163 -1 -362z m607
324 c-13 -2 -23 -11 -24 -20 0 -10 -3 -12 -5 -5 -3 7 -12 9 -21 6 -11 -4 -14
-3 -9 6 11 17 48 30 66 22 11 -4 9 -7 -7 -9z m661 -49 c51 -69 88 -141 98
-187 14 -67 25 -156 19 -156 -6 0 -40 69 -74 150 -10 25 -36 84 -58 133 -21
48 -39 92 -39 97 0 22 22 7 54 -37z m645 -5 c0 -31 -1 -31 -10 -10 -5 13 -7
28 -3 33 10 16 14 9 13 -23z m3813 -126 l21 21 19 -23 c10 -12 18 -28 18 -35
0 -7 7 -25 15 -41 13 -26 13 -30 -7 -51 -14 -15 -25 -20 -33 -13 -22 18 -143
-36 -123 -55 4 -4 19 2 34 14 19 15 41 21 76 21 58 0 78 -9 135 -63 36 -34 41
-44 38 -76 -1 -20 -3 -43 -4 -51 -1 -13 -2 -13 -11 0 -8 12 -10 11 -10 -7 0
-14 -10 -28 -27 -37 -16 -8 -49 -35 -74 -60 -26 -25 -52 -46 -58 -46 -6 0 -11
-4 -11 -9 0 -9 -30 -24 -37 -18 -2 2 3 17 12 33 13 26 13 29 0 32 -8 2 -15 14
-15 27 0 24 -83 108 -127 128 -30 14 -29 22 7 44 17 10 33 29 36 43 4 14 18
35 32 47 23 19 24 25 14 47 -6 14 -9 32 -6 40 3 8 0 17 -6 21 -12 7 -40 -52
-40 -86 0 -21 -1 -22 -20 -4 -19 17 -21 17 -70 -33 -59 -60 -64 -81 -19 -74
28 4 30 3 27 -24 -2 -23 1 -28 14 -26 9 1 19 -1 22 -6 3 -5 -10 -8 -29 -6 -19
1 -35 -2 -35 -7 0 -5 -7 -9 -15 -9 -10 0 -15 10 -15 33 0 22 -3 28 -9 18 -5
-8 -7 -20 -4 -28 3 -7 -1 -13 -8 -13 -32 -1 39 -40 72 -40 53 0 106 -25 112
-52 3 -13 7 -71 8 -130 1 -60 6 -108 10 -108 5 0 15 12 23 28 8 15 47 59 88
99 l73 72 59 -35 c32 -19 61 -33 63 -30 3 3 -11 28 -31 56 -20 27 -36 52 -36
54 0 3 20 15 45 27 45 22 125 91 125 106 -1 28 -54 63 -94 63 -28 0 -47 23
-65 80 -6 20 -21 40 -33 45 -24 10 -71 92 -62 106 3 5 117 9 254 9 l250 0 15
-23 c13 -21 15 -139 13 -1013 l-3 -989 -545 3 c-337 3 -552 8 -564 14 -16 9
-17 17 -12 61 4 28 15 69 25 91 10 23 24 58 31 79 7 22 18 51 26 65 8 15 14
30 14 34 0 4 11 32 25 62 38 82 36 86 -39 86 l-63 0 -7 53 c-4 28 -12 99 -17
157 -11 128 -25 1246 -15 1283 l6 26 173 -4 c94 -2 206 -1 247 3 65 7 77 6 88
-9 13 -16 15 -16 34 3z m-8200 -642 c-2 -355 -8 -663 -12 -685 -5 -22 -11
-141 -14 -265 -4 -124 -9 -267 -12 -317 l-6 -93 -409 0 c-393 0 -409 1 -419
19 -11 22 -15 1752 -4 1884 6 66 10 77 25 77 11 0 19 4 19 10 0 11 181 16 570
15 l265 0 -3 -645z m622 498 c-43 -84 -85 -164 -95 -178 -9 -14 -36 -63 -59
-110 -24 -47 -82 -157 -130 -245 -48 -88 -103 -194 -123 -236 -43 -91 -92
-198 -100 -219 -8 -21 -8 437 0 818 l6 322 289 0 289 0 -77 -152z m6906 -5 c0
-264 12 -716 20 -758 4 -22 8 173 9 433 1 307 4 472 11 472 10 0 15 -297 10
-641 -1 -86 4 -208 11 -273 7 -64 9 -119 6 -123 -10 -10 -54 35 -66 68 -6 16
-16 42 -21 57 -6 15 -21 39 -34 53 -24 26 -88 132 -131 219 -15 30 -45 81 -66
112 -22 32 -39 60 -39 63 0 3 -39 72 -87 153 -48 81 -102 179 -121 217 -20 39
-39 78 -44 88 -8 16 8 17 267 17 l275 0 0 -157z m-583 93 c18 -29 57 -101 87
-159 30 -58 73 -134 94 -169 22 -35 60 -101 86 -148 26 -47 59 -105 75 -130
15 -25 58 -103 95 -175 37 -71 78 -144 91 -161 13 -17 27 -44 31 -60 4 -16 18
-44 32 -62 14 -18 23 -34 21 -36 -2 -2 -58 -6 -124 -10 -176 -9 -550 -44 -677
-63 l-38 -6 0 40 c0 22 9 92 20 154 11 63 22 131 24 151 3 21 10 63 15 95 6
32 26 171 46 308 20 138 45 301 55 364 11 62 20 115 20 117 0 17 21 -5 47 -50z
m-5962 -82 c33 -24 83 -62 110 -84 28 -23 73 -57 101 -78 28 -20 67 -51 88
-68 l37 -31 -32 -89 c-86 -247 -125 -355 -153 -419 -10 -22 -27 -67 -38 -100
-11 -33 -34 -94 -51 -135 l-32 -74 -22 94 c-13 52 -32 160 -44 240 -19 135
-75 491 -84 541 -3 12 -9 59 -15 103 -6 45 -16 100 -21 124 -5 23 -6 54 -3 67
l6 25 47 -35 c25 -20 73 -56 106 -81z m1835 19 l0 -73 -47 0 c-27 0 -92 3
-145 7 l-98 6 0 68 0 68 145 -2 145 -2 0 -72z m2018 54 c30 -16 32 -21 32 -72
0 -30 -1 -56 -2 -56 -2 -1 -72 -4 -156 -8 l-152 -6 0 84 0 83 123 -4 c91 -3
130 -8 155 -21z m3205 -165 c-13 -22 -49 -27 -56 -8 -3 8 6 26 21 41 l26 27
10 -22 c7 -14 6 -27 -1 -38z m412 -26 c19 -8 35 -18 35 -22 0 -11 -59 -64 -71
-64 -7 0 -9 12 -5 36 5 22 3 41 -5 50 -15 19 1 19 46 0z m-395 -96 c0 -5 -6
-10 -14 -10 -8 0 -18 5 -21 10 -3 6 3 10 14 10 12 0 21 -4 21 -10z m70 -78 c0
-15 -2 -15 -10 -2 -13 20 -13 33 0 25 6 -3 10 -14 10 -23z m20 -67 c0 -6 -7
-20 -15 -31 -13 -17 -14 -15 -14 31 0 46 1 48 14 31 8 -11 15 -25 15 -31z
m-2580 -415 c0 -5 -2 -10 -4 -10 -3 0 -8 5 -11 10 -3 6 -1 10 4 10 6 0 11 -4
11 -10z m-3180 -234 c0 -3 -4 -8 -10 -11 -5 -3 -10 -1 -10 4 0 6 5 11 10 11 6
0 10 -2 10 -4z m40 -16 c0 -5 -5 -10 -11 -10 -5 0 -7 5 -4 10 3 6 8 10 11 10
2 0 4 -4 4 -10z m4249 -299 c12 -35 36 -84 52 -108 39 -56 86 -158 133 -288
20 -55 45 -118 56 -140 11 -23 20 -67 21 -105 2 -35 9 -89 16 -120 24 -104 17
-200 -31 -385 -14 -55 -27 -117 -29 -138 -8 -69 -20 -67 -103 19 -47 49 -82
94 -90 119 -8 22 -50 84 -94 138 -44 54 -80 102 -80 107 0 4 -16 27 -35 49
-19 23 -48 64 -66 91 -20 31 -43 53 -63 60 -34 12 -196 93 -196 98 0 6 168
252 180 262 3 3 21 30 40 60 19 30 56 83 82 117 27 35 76 104 109 154 34 50
64 87 69 83 4 -5 17 -38 29 -73z m-5618 -45 c20 -14 44 -41 53 -60 9 -19 21
-38 26 -41 6 -4 8 -11 5 -16 -4 -5 5 -19 18 -32 29 -30 97 -122 97 -132 0 -5
17 -31 39 -59 54 -71 111 -162 111 -178 0 -21 -242 -258 -291 -286 -110 -62
-166 -98 -194 -123 -78 -72 -254 -238 -328 -310 -148 -145 -163 -158 -187
-164 -26 -6 -97 10 -280 64 -160 47 -241 73 -285 91 -22 10 -60 26 -85 36 -25
10 -50 24 -57 30 -7 7 -34 22 -60 34 -100 46 -314 154 -318 160 -2 4 19 15 48
25 29 10 62 25 74 33 13 8 100 50 195 93 94 43 174 82 177 86 3 4 15 10 26 11
11 2 22 8 23 13 2 5 9 9 16 9 17 0 149 68 216 112 72 46 137 86 200 123 29 17
64 40 79 51 14 12 40 30 57 40 39 24 127 84 179 123 22 16 59 42 83 58 24 15
63 44 87 63 24 19 55 44 69 55 14 11 37 29 50 40 56 48 69 57 89 65 31 12 28
13 68 -14z m4419 -148 c-12 -79 -34 -208 -50 -288 -15 -80 -33 -176 -39 -215
-44 -255 -70 -375 -81 -375 -4 0 -18 11 -31 24 -31 31 -82 38 -87 13 -4 -21
15 -48 32 -45 6 1 21 -2 34 -6 29 -10 23 -32 -6 -28 -13 2 -25 -3 -28 -13 -6
-16 -54 -45 -74 -45 -5 0 -10 16 -10 35 0 25 -4 33 -14 29 -9 -4 -17 9 -25 40
-9 38 -15 45 -41 51 -39 9 -38 32 2 43 27 7 34 15 43 49 12 51 20 59 40 43 19
-16 19 -7 1 28 -10 19 -12 39 -7 62 l8 35 6 -30 c3 -16 8 -47 12 -68 4 -24 10
-35 17 -31 14 9 2 -44 -15 -66 -25 -31 -36 -59 -27 -65 5 -3 14 4 21 16 7 14
14 18 18 10 13 -20 63 152 60 205 -1 27 0 60 4 74 3 14 8 42 11 63 4 30 2 37
-13 37 -9 0 -26 7 -37 15 -26 20 -58 19 -76 -2 -35 -42 -107 -192 -111 -234
-2 -24 -9 -55 -15 -69 -6 -14 -21 -59 -33 -100 -19 -62 -30 -83 -70 -122 -29
-28 -63 -51 -86 -57 -51 -14 -123 -23 -123 -15 0 10 80 143 90 149 6 3 10 11
10 17 0 12 -96 -105 -112 -137 -14 -27 -49 -65 -61 -65 -6 0 -5 5 1 13 5 6 11
46 13 87 4 69 8 81 47 139 48 72 50 81 22 81 -39 0 -87 28 -103 59 -10 20 -12
33 -5 37 5 4 7 19 4 35 -7 34 -4 35 133 44 l103 7 -7 -51 c-4 -28 -3 -51 2
-51 36 0 86 83 119 199 39 134 101 214 187 241 37 12 103 43 159 76 37 22 61
56 63 93 3 58 21 141 33 153 15 15 106 37 110 27 2 -5 -6 -73 -18 -151z
m-1783 107 c40 -77 227 -293 293 -338 l24 -17 -55 -57 c-31 -32 -75 -83 -99
-113 -65 -80 -120 -137 -120 -122 0 17 -95 145 -149 201 -23 24 -57 67 -75 95
-18 28 -40 57 -49 65 -10 7 -17 19 -17 26 0 7 -7 18 -15 25 -26 21 -17 36 49
85 41 30 69 58 75 78 11 31 87 107 108 107 6 0 19 -16 30 -35z m4057 -42 c-43
-101 -84 -233 -84 -271 0 -21 -2 -23 -15 -12 -9 7 -32 14 -53 16 -20 1 -73 12
-116 23 -44 12 -110 21 -147 21 -45 0 -69 4 -72 13 -3 9 -7 9 -18 1 -8 -6 -41
-14 -74 -17 -56 -4 -133 -37 -200 -83 -28 -20 -45 -17 -45 6 0 20 -34 102 -71
173 -11 21 -31 67 -45 103 l-24 64 490 0 490 0 -16 -37z m-5579 -99 c29 -7 82
-28 117 -47 54 -29 65 -39 80 -78 9 -24 17 -68 17 -96 1 -29 5 -53 11 -53 14
0 23 43 18 90 -2 22 -2 40 -1 40 2 0 17 -21 33 -46 20 -33 31 -64 36 -112 5
-53 15 -80 47 -132 22 -36 51 -85 65 -110 14 -25 33 -55 43 -68 10 -13 30 -55
45 -95 14 -40 40 -98 56 -129 17 -31 28 -61 24 -66 -3 -5 -32 -17 -64 -26 -56
-17 -60 -17 -93 -1 -50 26 -94 80 -125 154 -15 36 -45 104 -67 150 -39 82 -40
88 -41 197 -1 62 -2 111 -4 109 -2 -2 -10 -34 -17 -72 -21 -97 -38 -153 -52
-164 -12 -10 -15 -1 -29 86 -3 22 -12 49 -19 61 -14 21 -43 123 -47 164 -6 56
-79 26 -134 -56 -29 -43 -29 -44 1 -73 14 -13 25 -29 25 -37 0 -26 41 -62 85
-74 41 -12 43 -13 54 -68 6 -30 11 -66 11 -79 0 -18 6 -23 24 -23 20 0 28 -10
46 -57 25 -63 69 -147 106 -203 24 -37 57 -147 48 -161 -8 -14 -20 -11 -101
29 -132 64 -236 193 -264 331 -11 53 -18 65 -39 72 -84 31 -153 67 -162 83 -9
17 -2 27 45 70 50 47 77 86 59 86 -13 0 -159 -144 -166 -162 -3 -10 -13 -18
-21 -18 -9 0 -41 -20 -72 -45 -31 -25 -77 -58 -102 -72 -25 -15 -60 -39 -77
-53 -27 -23 -29 -28 -15 -37 11 -8 24 -7 43 3 36 19 89 19 173 0 39 -9 116
-21 173 -28 97 -11 103 -13 97 -32 -4 -12 -9 -32 -12 -45 -3 -13 -25 -41 -49
-63 -24 -22 -44 -47 -44 -54 0 -10 -8 -13 -27 -8 -16 3 -50 10 -78 16 -68 14
-272 76 -312 94 -17 8 -37 14 -45 14 -21 0 -58 -135 -58 -215 -1 -80 -7 -93
-72 -164 -55 -59 -87 -66 -115 -25 -16 25 -16 29 1 73 10 25 18 59 17 76 0 16
4 45 9 63 7 26 6 34 -6 39 -17 6 -11 60 12 104 12 24 11 30 -7 52 -14 18 -18
34 -13 51 9 38 -13 33 -71 -15 -27 -22 -92 -61 -145 -86 -84 -41 -142 -74
-230 -133 -14 -9 -52 -27 -85 -41 -33 -13 -104 -45 -158 -71 -54 -27 -100 -48
-104 -48 -3 0 18 19 48 43 29 23 91 79 137 125 76 75 204 193 242 225 9 6 40
32 69 56 63 53 136 100 207 135 59 29 60 30 264 246 85 90 173 183 195 206 29
30 52 44 80 49 24 4 48 17 61 32 12 14 40 33 62 43 l40 18 6 -42 c4 -23 4 -49
1 -58 -3 -8 -38 -43 -78 -78 -66 -58 -164 -153 -376 -360 l-76 -74 -68 3 c-63
3 -97 -7 -97 -29 0 -4 49 -7 109 -6 l108 1 63 70 c120 134 359 373 415 416
l57 43 -6 46 c-3 25 -9 60 -12 78 -5 24 -2 38 12 53 17 19 26 20 113 14 51 -4
117 -13 146 -21z m2146 -48 c47 -14 115 -30 152 -37 l67 -12 0 -243 c0 -133
-3 -249 -6 -258 -4 -10 -18 -16 -35 -16 -17 0 -32 -6 -35 -15 -5 -11 -23 -15
-74 -15 -38 0 -71 4 -74 8 -6 10 96 138 115 144 16 5 24 100 11 125 -6 11 -30
25 -53 32 -44 13 -71 37 -129 116 -19 26 -47 61 -62 77 -16 16 -28 32 -28 35
0 4 -7 14 -15 23 -13 15 -14 22 -3 45 11 24 16 26 48 21 20 -3 75 -17 121 -30z
m1770 -315 c23 -38 56 -60 173 -117 55 -26 111 -59 124 -73 33 -36 136 -171
151 -199 11 -20 9 -22 -12 -22 -31 0 -51 18 -67 60 -23 60 -51 100 -71 100
-33 0 -28 -10 65 -138 37 -51 40 -53 76 -47 34 6 40 3 70 -31 18 -21 38 -49
44 -63 16 -35 83 -138 96 -146 5 -3 10 -10 10 -16 0 -15 -122 64 -127 83 -3 9
-20 19 -39 22 -23 5 -42 18 -61 44 -15 20 -29 39 -31 42 -2 3 -14 -7 -27 -22
-29 -33 -41 -35 -55 -8 -6 11 -22 27 -35 36 -22 14 -26 14 -57 -8 -18 -13 -37
-28 -43 -35 -5 -7 -57 -30 -115 -53 -57 -22 -121 -51 -141 -64 -20 -13 -46
-26 -59 -28 -22 -3 -25 3 -41 77 -9 45 -13 84 -9 89 5 5 35 21 67 35 62 28
170 98 193 126 13 15 11 20 -19 44 -28 23 -33 32 -27 55 5 19 0 35 -16 59 -13
17 -24 34 -25 36 -2 2 -5 2 -8 0 -2 -3 2 -18 11 -34 8 -15 15 -49 17 -74 2
-44 1 -46 -47 -76 -26 -16 -71 -45 -100 -64 -28 -19 -91 -46 -141 -61 -49 -16
-111 -36 -136 -46 -25 -10 -53 -15 -62 -11 -38 15 -16 49 124 190 160 161 219
230 219 258 0 29 -11 24 -60 -27 -48 -49 -183 -144 -206 -144 -8 0 -14 -4 -14
-10 0 -5 -4 -10 -9 -10 -6 0 -6 13 0 33 6 17 12 52 14 76 3 24 10 61 15 82 12
45 92 147 126 159 33 13 30 29 -12 84 -50 66 -63 102 -52 141 l10 31 151 -153
c83 -84 158 -166 168 -182z m-1346 192 c28 -7 68 -18 90 -24 52 -13 66 -26 61
-58 -2 -14 -5 -29 -5 -33 -1 -9 -31 -6 -49 5 -7 5 -62 10 -123 13 -88 4 -109
2 -103 -8 5 -9 4 -10 -3 -3 -6 6 -8 37 -5 73 l5 63 41 -7 c22 -3 64 -13 91
-21z m-1959 9 c6 -4 14 -31 18 -59 l7 -53 -118 0 c-123 0 -167 6 -157 21 3 5
-4 19 -15 31 -12 12 -21 25 -21 28 0 6 45 18 125 34 36 7 150 6 161 -2z m4559
-1 c43 -6 47 -8 24 -14 -15 -4 -50 -32 -78 -63 l-51 -56 0 -73 c0 -72 -13
-103 -31 -74 -14 22 -11 157 4 162 10 4 10 7 0 18 -7 7 -13 35 -13 61 l0 48
48 -1 c26 0 70 -4 97 -8z m205 -40 c49 -20 59 -44 20 -49 -14 -2 -30 -8 -36
-13 -6 -5 -19 -7 -28 -3 -28 11 -17 -5 15 -22 30 -15 31 -18 26 -60 -2 -25
-13 -54 -23 -66 -45 -49 -154 -97 -154 -66 0 44 23 143 40 173 11 20 20 41 20
47 0 21 44 78 60 77 8 0 35 -8 60 -18z m-429 -51 c3 -25 13 -71 23 -102 9 -32
16 -72 14 -90 -3 -32 -5 -33 -49 -36 l-47 -3 -12 53 c-15 65 -49 148 -61 148
-20 0 -7 20 29 41 81 51 95 50 103 -11z m225 -66 c-9 -113 -12 -124 -37 -124
-17 0 -19 8 -19 88 0 92 14 132 47 132 14 0 15 -12 9 -96z m-5157 -34 c26 -68
26 -70 -2 -70 -28 0 -47 17 -47 44 0 19 22 88 26 83 1 -1 12 -27 23 -57z
m2591 19 c114 -14 130 -18 130 -29 0 -5 -10 -12 -22 -14 -13 -2 -49 -10 -80
-17 -59 -12 -155 -7 -189 12 -12 6 -19 20 -19 38 0 28 1 28 48 25 26 -3 85 -9
132 -15z m2486 -107 c-11 -10 -12 3 -6 68 l5 65 3 -64 c2 -35 1 -66 -2 -69z
m444 -102 c17 -47 35 -94 40 -105 15 -33 58 -186 65 -235 20 -127 103 -337
168 -425 12 -17 39 -54 60 -83 47 -63 77 -145 77 -208 l0 -47 -32 6 c-18 3
-60 21 -93 40 -119 70 -221 124 -295 155 -69 30 -110 43 -230 75 -28 8 -45 18
-45 27 0 8 27 29 60 46 93 48 156 84 169 97 26 25 68 124 68 157 0 19 -9 62
-21 95 -50 141 -78 324 -61 401 12 51 29 98 35 93 2 -3 18 -43 35 -89z m-690
55 c10 -12 10 -15 -4 -15 -9 0 -16 7 -16 15 0 8 2 15 4 15 2 0 9 -7 16 -15z
m-4268 -63 c51 -26 129 -64 173 -84 44 -21 91 -44 105 -52 14 -8 33 -17 43
-20 24 -8 22 -17 -17 -59 -28 -31 -43 -39 -83 -43 -33 -4 -57 -1 -78 10 -16 9
-35 16 -42 16 -6 0 -21 13 -31 28 -11 15 -33 34 -49 42 -34 18 -44 30 -82 100
-39 73 -53 110 -41 110 5 0 51 -21 102 -48z m4517 23 c26 -8 33 -30 18 -58
-12 -23 -16 -23 -115 -21 -125 4 -135 7 -153 42 -7 15 -15 29 -16 32 -4 8 244
12 266 5z m331 -24 c0 -55 -7 -61 -70 -61 -56 0 -57 1 -52 25 2 15 0 25 -7 25
-6 0 -11 -7 -11 -15 0 -8 -9 -15 -19 -15 -11 0 -23 -4 -26 -10 -3 -5 -21 -10
-40 -10 -35 0 -45 13 -45 55 0 28 9 30 163 33 l107 2 0 -29z m-5196 -125 c25
-59 36 -102 34 -125 l-3 -36 -33 60 c-18 33 -41 76 -52 95 -22 39 -27 109 -8
128 10 10 14 8 19 -10 4 -13 23 -63 43 -112z m2793 47 c-3 -10 -5 -2 -5 17 0
19 2 27 5 18 2 -10 2 -26 0 -35z m2256 20 c-7 -2 -19 -2 -25 0 -7 3 -2 5 12 5
14 0 19 -2 13 -5z m115 -50 c-16 -2 -40 -2 -55 0 -16 2 -3 4 27 4 30 0 43 -2
28 -4z m-490 -64 c21 -7 37 -7 49 0 11 5 38 7 61 4 37 -5 43 -10 51 -37 l9
-31 1 33 c1 27 5 32 26 32 20 0 25 -5 25 -24 0 -51 -2 -51 -133 -47 -77 2
-125 7 -129 15 -6 8 -8 8 -8 -1 0 -7 -5 -13 -10 -13 -12 0 -3 48 13 68 11 15
7 14 45 1z m520 -28 c7 -21 12 -40 12 -43 0 -2 -60 -5 -134 -7 l-133 -2 -6 37
c-4 25 -2 41 5 45 7 4 64 8 128 8 l117 1 11 -39z m-8388 -47 c29 -8 82 -32
119 -51 280 -151 558 -283 594 -283 6 0 66 -18 132 -39 66 -22 148 -45 182
-52 35 -6 70 -17 79 -24 14 -10 9 -15 -37 -33 -30 -12 -67 -29 -84 -38 -16 -9
-64 -34 -105 -55 -93 -48 -176 -126 -339 -320 l-45 -52 -79 84 c-44 46 -91 99
-106 119 -14 19 -52 66 -84 104 -31 38 -73 97 -92 131 -19 34 -41 68 -50 75
-8 7 -15 18 -15 24 0 6 -16 34 -36 61 -84 117 -147 310 -113 349 17 19 15 19
79 0z m5866 -81 c4 -19 3 -38 -2 -43 -5 -5 -39 -10 -76 -12 -66 -3 -67 -3 -49
17 10 11 27 36 36 55 10 19 22 38 28 42 19 12 56 -23 63 -59z m2034 47 c0 -11
-30 -21 -41 -15 -5 4 -6 -1 -3 -9 7 -19 96 -22 138 -6 20 7 26 6 26 -5 0 -17
-26 -21 -112 -17 -63 3 -68 5 -68 26 0 13 2 25 4 27 8 8 56 7 56 -1z m-4200
-10 c0 -5 -12 -10 -26 -10 -14 0 -23 4 -19 10 3 6 15 10 26 10 10 0 19 -4 19
-10z m4683 4 c56 -10 49 -34 -10 -35 -45 0 -208 0 -226 1 -5 0 -5 5 -2 10 4 6
11 8 16 5 5 -4 9 -3 9 2 0 4 26 10 57 11 32 2 60 5 62 8 6 6 50 5 94 -2z
m-383 -8 c0 -2 -7 -6 -15 -10 -8 -3 -15 -1 -15 4 0 6 7 10 15 10 8 0 15 -2 15
-4z m-2720 -26 c31 -49 -6 -67 -135 -70 -49 0 -97 -1 -105 -2 -26 -1 -84 13
-96 23 -7 6 -17 24 -23 40 l-10 30 180 -3 c145 -3 182 -6 189 -18z m-2313 -74
c29 -43 53 -87 53 -97 0 -10 -1 -19 -3 -19 -1 0 -36 13 -77 29 -41 15 -92 31
-113 35 -22 4 -37 12 -34 19 3 10 64 47 99 60 9 3 7 9 -6 19 -21 17 -13 41 12
36 9 -2 40 -38 69 -82z m1672 58 c2 -2 -33 -4 -78 -4 -45 0 -80 4 -77 8 5 8
147 4 155 -4z m81 6 c0 -5 -5 -10 -11 -10 -5 0 -7 5 -4 10 3 6 8 10 11 10 2 0
4 -4 4 -10z m60 -6 c0 -2 -7 -4 -15 -4 -8 0 -15 4 -15 10 0 5 7 7 15 4 8 -4
15 -8 15 -10z m-557 -30 c18 -6 12 -38 -15 -76 -10 -14 -18 -33 -18 -41 0 -9
-4 -19 -10 -22 -5 -3 -10 -19 -10 -35 l0 -30 -107 4 c-60 2 -138 4 -175 5
l-67 1 4 63 c6 88 5 85 42 82 18 -2 35 1 38 6 4 5 14 9 24 9 10 0 24 7 31 15
17 21 30 19 30 -4 0 -23 23 -34 40 -18 10 10 12 8 7 -6 -4 -11 -3 -16 3 -12 6
4 8 16 6 28 -3 18 1 22 20 22 13 0 24 -3 24 -7 0 -5 -4 -8 -10 -8 -5 0 -10 -6
-10 -12 1 -7 9 -2 20 10 15 19 27 23 54 19 18 -2 40 -1 47 4 17 10 14 10 32 3z
m196 -8 c9 -11 7 -15 -11 -19 -20 -6 -37 6 -38 26 0 12 37 8 49 -7z m381 4 c0
-5 -10 -10 -22 -11 -13 0 -32 -3 -43 -5 -11 -3 -30 -6 -42 -7 -13 -1 -23 -5
-23 -9 0 -5 -24 -8 -54 -8 -39 0 -55 4 -60 15 -4 10 -20 15 -51 15 -25 0 -45
5 -45 10 0 6 63 10 170 10 107 0 170 -4 170 -10z m-1108 -31 c47 -31 48 -32
48 -84 0 -29 3 -60 6 -69 5 -14 -11 -16 -146 -16 l-151 0 6 48 c12 90 10 88
87 120 40 16 79 30 87 31 8 0 36 -13 63 -30z m179 -2 c-10 -9 -11 -8 -5 6 3
10 9 15 12 12 3 -3 0 -11 -7 -18z m2803 -44 c3 -21 6 -64 6 -95 l0 -58 -166 0
-166 0 7 78 c4 42 10 80 14 84 6 7 168 23 262 27 35 1 37 -1 43 -36z m-3268
17 c22 0 24 -4 24 -44 0 -24 -3 -64 -6 -90 l-7 -46 -42 0 -43 0 13 38 c16 46
22 123 10 142 -6 10 -4 12 9 7 10 -4 29 -7 42 -7z m2181 -10 c-32 -25 -106
-59 -129 -60 -21 0 -24 30 -6 48 7 7 30 12 53 13 22 1 51 5 65 9 41 13 44 11
17 -10z m581 11 c30 -4 58 -14 63 -22 10 -16 4 -79 -13 -121 l-10 -28 -259 0
-258 0 -5 33 c-3 17 -7 55 -8 82 l-3 50 80 6 c122 8 354 8 413 0z m-1375 -14
l27 2 0 -74 0 -75 -202 0 c-112 0 -247 -3 -300 -7 l-98 -6 0 29 c0 16 5 46 11
67 l10 37 63 0 c44 0 67 5 76 15 10 12 27 14 79 9 36 -3 109 -1 161 4 52 5
106 6 120 3 14 -3 37 -5 53 -4z m181 5 c3 -5 83 -7 177 -5 157 4 171 3 165
-12 -13 -36 -16 -61 -7 -74 9 -14 21 -12 109 14 19 6 22 4 22 -19 0 -19 7 -29
26 -36 24 -9 31 -5 80 45 30 30 59 55 64 55 9 0 14 -25 23 -99 l4 -34 -156 6
c-86 4 -254 7 -373 7 l-218 0 0 80 0 80 39 0 c22 0 42 -4 45 -8z m-2126 -44
c7 -6 11 -13 8 -15 -5 -6 -76 24 -76 33 0 9 52 -5 68 -18z m3472 -59 c0 -52
-2 -60 -16 -55 -9 3 -19 6 -24 6 -4 0 -4 15 0 34 5 22 4 38 -4 46 -8 8 -7 13
4 20 33 21 40 11 40 -51z m-3383 26 c20 -8 34 -18 31 -20 -3 -3 -27 3 -54 14
-27 11 -41 20 -31 20 10 1 34 -6 54 -14z m193 -42 c0 -2 -13 -2 -30 -1 -24 2
-30 7 -30 25 l0 24 30 -23 c17 -12 30 -23 30 -25z m-435 17 c98 -10 195 -35
195 -50 0 -11 -178 -11 -430 -1 l-155 6 25 23 c14 13 34 28 45 32 22 9 176 4
320 -10z m928 -54 c82 3 127 1 127 -6 0 -6 -53 -10 -145 -10 -124 0 -145 2
-145 15 0 12 4 13 18 7 9 -5 74 -8 145 -6z m230 -3 c-7 -2 -21 -2 -30 0 -10 3
-4 5 12 5 17 0 24 -2 18 -5z m855 -178 c-4 -176 -22 -198 -26 -33 -3 121 3
178 19 178 6 0 8 -55 7 -145z m-548 -5 l0 -140 -180 0 -180 0 0 140 0 140 180
0 180 0 0 -140z m500 0 l0 -140 -190 0 -190 0 0 73 c0 39 3 102 7 140 l6 67
183 0 184 0 0 -140z m480 123 c3 -3 6 -62 8 -132 l4 -128 -100 -6 c-55 -4
-127 -4 -161 -1 l-61 7 0 133 0 133 33 3 c42 4 271 -3 277 -9z m1519 4 l34 -2
33 -135 c19 -74 34 -138 34 -142 0 -5 -232 -8 -515 -8 -404 0 -516 3 -519 13
-3 6 -7 72 -10 145 l-5 132 254 0 c163 0 255 -4 255 -10 0 -14 33 -13 62 3 21
11 239 13 377 4z m-3786 -117 c-2 -63 -5 -125 -8 -137 l-5 -23 -449 0 -449 0
5 23 c3 12 9 39 15 60 l9 38 29 -21 c51 -36 86 -27 146 38 30 31 54 60 54 64
0 4 9 23 21 43 l21 35 307 -2 306 -3 -2 -115z m357 -25 l0 -145 -142 0 c-79 0
-148 4 -154 8 -10 7 -1 237 11 270 3 9 41 12 145 12 l140 0 0 -145z m485 53
c4 -51 5 -113 3 -138 l-3 -45 -190 -6 c-104 -3 -196 -4 -202 -1 -10 3 -13 41
-13 143 l0 139 199 0 199 0 7 -92z m1100 -40 c0 -118 -2 -133 -17 -136 -16 -3
-18 8 -18 132 0 123 2 136 18 136 15 0 17 -13 17 -132z m395 -3 c0 -113 -2
-135 -15 -135 -13 0 -15 21 -15 128 0 71 3 132 7 135 19 19 23 -5 23 -128z
m37 -67 c-1 -40 -3 -10 -3 67 0 77 1 110 3 73 2 -37 2 -100 0 -140z m363 83
c0 -66 3 -126 6 -135 5 -14 -13 -16 -160 -16 l-166 0 0 135 0 135 160 0 160 0
0 -119z m-1423 -33 c-2 -18 -4 -4 -4 32 0 36 2 50 4 33 2 -18 2 -48 0 -65z
m4005 42 c-2 -14 -12 -34 -23 -46 -19 -21 -19 -21 28 -47 27 -14 58 -38 69
-54 12 -15 39 -37 60 -48 22 -11 53 -29 69 -41 17 -11 60 -35 96 -53 75 -36
125 -82 116 -105 -9 -22 -82 -20 -187 5 -118 27 -120 28 -265 35 -179 9 -422
-17 -572 -62 -22 -6 -23 -4 -23 48 0 64 1 64 125 102 44 14 115 37 157 52 l77
27 -17 25 c-16 25 -16 26 40 77 31 28 54 56 50 61 -4 6 -25 17 -47 25 l-40 14
55 6 c30 3 96 6 145 5 l90 -1 -3 -25z m-4005 -142 c-2 -13 -4 -5 -4 17 -1 22
1 32 4 23 2 -10 2 -28 0 -40z m-2156 -91 c-1 -12 -15 -9 -19 4 -3 6 1 10 8 8
6 -3 11 -8 11 -12z m49 -9 c0 -6 -6 -5 -15 2 -8 7 -15 14 -15 16 0 2 7 1 15
-2 8 -4 15 -11 15 -16z m87 7 c0 -7 -6 -12 -13 -12 -7 0 -11 4 -8 9 3 4 1 8
-5 8 -5 0 -11 -5 -13 -10 -2 -7 -10 -6 -22 3 -17 12 -15 14 21 13 22 0 40 -5
40 -11z m53 3 c0 -10 2 -10 8 -2 4 8 42 12 109 11 83 0 103 -3 108 -16 6 -14
8 -13 21 3 10 14 14 16 14 5 0 -11 2 -11 9 -1 7 11 9 10 14 -3 4 -9 3 -13 -2
-10 -5 3 -12 1 -16 -4 -3 -5 -15 -7 -28 -5 -12 3 -28 6 -34 6 -7 1 -13 6 -13
12 0 6 -4 5 -9 -3 -5 -8 -7 -21 -4 -30 3 -10 2 -12 -4 -5 -4 6 -15 10 -24 9
-9 -2 -16 3 -16 11 0 11 3 11 16 1 14 -11 14 -10 2 6 -14 17 -16 17 -27 3 -13
-19 -29 -22 -18 -3 5 8 2 8 -9 -2 -11 -8 -17 -9 -17 -3 0 6 -7 9 -15 6 -8 -4
-12 -10 -9 -15 3 -5 -2 -6 -10 -3 -9 3 -13 11 -9 18 4 6 0 6 -9 -2 -11 -9 -18
-10 -23 -2 -3 6 -11 7 -17 4 -6 -4 -8 -2 -4 4 3 6 -2 13 -11 15 -14 4 -13 5 5
6 12 0 22 -5 22 -11z m355 -8 c10 -11 13 -20 8 -20 -6 0 -14 7 -17 16 -4 10
-14 14 -26 11 -11 -3 -18 -1 -14 4 9 15 30 10 49 -11z m1499 8 c-6 -10 -4 -10
7 -2 8 5 31 11 52 13 l37 3 0 -55 c0 -36 -5 -57 -13 -60 -20 -8 -151 -6 -162
2 -5 5 -19 11 -29 15 -15 5 -17 4 -7 -8 10 -11 7 -14 -13 -12 -13 0 -22 4 -19
9 2 4 -3 7 -11 7 -9 0 -16 -4 -16 -8 0 -5 -18 -9 -39 -10 -42 -2 -48 10 -22
42 12 14 11 16 -4 10 -14 -6 -16 -3 -10 16 5 15 4 20 -4 16 -7 -4 -11 0 -11
11 0 18 11 19 136 21 109 2 134 0 128 -10z m446 3 c0 -5 -16 -7 -35 -5 -47 4
-46 -18 0 -36 36 -14 36 -14 13 -28 l-23 -13 23 5 c15 3 22 0 19 -7 -2 -7 -14
-11 -26 -10 -12 2 -20 -1 -17 -5 2 -4 -4 -8 -14 -8 -10 0 -16 4 -14 8 3 4 -1
8 -9 8 -34 0 -41 41 -9 48 10 2 10 -2 2 -18 -9 -17 -8 -20 13 -20 25 0 52 22
40 33 -3 4 -12 2 -20 -5 -11 -9 -13 -8 -11 3 2 10 -7 14 -32 14 -20 0 -35 -5
-35 -12 0 -6 -4 -15 -9 -20 -5 -5 -6 -3 -2 5 4 6 3 12 -2 12 -6 0 -13 -7 -16
-16 -3 -8 -11 -12 -17 -9 -5 4 -18 0 -28 -9 -17 -15 -18 -13 -20 39 l-2 54
115 0 c64 0 116 -4 116 -8z m34 -7 c-11 -9 -13 -12 -5 -8 9 4 12 2 9 -7 -2 -8
-18 -15 -34 -17 -24 -2 -26 -1 -11 8 9 6 17 17 17 23 0 7 10 13 21 14 21 2 21
1 3 -13z m82 -34 c0 -27 -5 -46 -9 -43 -5 3 -6 11 -3 19 6 17 -6 18 -21 3 -8
-8 -13 -8 -18 1 -4 7 1 14 14 17 22 6 28 27 11 38 -6 4 -7 -1 -3 -12 6 -15 5
-16 -9 -3 -20 19 -15 28 15 28 22 0 24 -4 23 -48z m244 38 c0 17 52 10 58 -8
3 -8 0 -10 -9 -5 -8 5 -4 -3 8 -16 38 -42 19 -77 -43 -77 -28 0 -33 4 -36 27
-4 33 35 59 61 39 12 -9 12 -7 -1 7 -14 15 -20 17 -30 7 -20 -20 -38 -14 -34
11 3 12 5 24 5 27 1 3 6 -2 11 -10 7 -11 10 -11 10 -2z m162 -20 c34 -38 35
-42 7 -27 -15 8 -19 8 -15 0 4 -6 1 -11 -6 -12 -10 0 -10 -2 0 -6 17 -7 15
-20 -4 -20 -11 0 -14 7 -11 23 3 15 0 21 -9 17 -7 -2 -10 -11 -7 -19 3 -8 0
-14 -6 -14 -6 0 -11 4 -11 8 0 5 -9 18 -20 30 -23 24 -9 41 18 21 14 -11 15
-11 5 1 -19 20 -16 30 9 30 11 0 34 -14 50 -32z m-1384 -10 c-7 -13 -11 -26
-10 -30 4 -14 -11 -8 -25 10 -8 9 -12 11 -8 5 3 -7 1 -13 -4 -13 -6 0 -11 9
-11 20 0 13 5 18 15 14 8 -4 15 -11 15 -17 0 -12 14 0 16 14 3 17 4 19 14 19
7 0 6 -8 -2 -22z m1427 4 c-3 -3 -11 0 -18 7 -9 10 -8 11 6 5 10 -3 15 -9 12
-12z m-1505 -2 c0 -5 -5 -10 -11 -10 -5 0 -7 5 -4 10 3 6 8 10 11 10 2 0 4 -4
4 -10z m152 -8 c-7 -2 -12 -8 -12 -13 0 -6 5 -7 10 -4 17 10 11 -4 -10 -25
-21 -21 -31 -25 -29 -12 3 18 -2 26 -10 14 -6 -11 -10 -9 -14 7 -4 17 -2 19
13 11 26 -14 29 -13 25 8 -4 24 3 32 22 25 11 -4 13 -8 5 -11z m842 -7 c-4 -8
-11 -12 -16 -9 -6 4 -5 10 3 15 19 12 19 11 13 -6z m631 -15 l20 -25 -22 19
c-13 11 -23 24 -23 29 0 6 1 8 3 6 1 -2 11 -15 22 -29z m-1665 5 c0 -8 -4 -15
-10 -15 -5 0 -10 7 -10 15 0 8 5 15 10 15 6 0 10 -7 10 -15z m1563 9 c-7 -3
-9 -12 -6 -20 3 -9 -1 -14 -13 -13 -11 0 -14 3 -7 5 7 3 9 12 6 20 -3 9 1 14
13 13 11 0 14 -3 7 -5z m-2426 -10 c-3 -3 -12 -4 -19 -1 -8 3 -5 6 6 6 11 1
17 -2 13 -5z m906 -11 c-4 -9 -2 -14 3 -11 5 4 18 0 29 -8 10 -8 14 -14 8 -14
-7 0 -15 5 -18 10 -4 6 -11 8 -16 4 -5 -3 -7 -10 -4 -15 4 -5 2 -9 -2 -9 -13
0 -34 40 -28 50 11 17 35 11 28 -7z m71 -28 c-4 -8 -8 -15 -10 -15 -2 0 -4 7
-4 15 0 8 4 15 10 15 5 0 7 -7 4 -15z m746 0 c7 -8 9 -15 6 -15 -4 0 -14 7
-22 15 -9 8 -11 15 -6 15 5 0 15 -7 22 -15z m217 -1 c-3 -3 -12 -4 -19 -1 -8
3 -5 6 6 6 11 1 17 -2 13 -5z"/>
<path d="M3231 5842 c-6 -2 -11 -8 -11 -14 0 -7 5 -7 13 1 8 6 16 8 19 6 10
-10 48 -14 53 -5 5 8 -55 18 -74 12z"/>
<path d="M7724 6983 c-34 -6 -51 -33 -57 -88 -5 -45 -4 -48 9 -30 9 12 12 30
9 44 -8 30 19 61 54 61 14 0 33 5 41 10 12 8 10 9 -10 8 -14 0 -35 -3 -46 -5z"/>
<path d="M8472 5658 c-35 -188 -42 -231 -39 -235 5 -5 26 76 32 124 2 17 9 59
15 93 6 34 9 64 7 67 -3 2 -10 -19 -15 -49z"/>
<path d="M9106 5647 c3 -10 9 -15 12 -12 3 3 0 11 -7 18 -10 9 -11 8 -5 -6z"/>
<path d="M5407 6534 c-14 -15 7 -24 54 -24 29 0 49 4 49 11 0 7 -12 10 -30 7
-16 -3 -30 -1 -30 4 0 9 -34 11 -43 2z"/>
<path d="M5941 5834 c0 -11 3 -14 6 -6 3 7 2 16 -1 19 -3 4 -6 -2 -5 -13z"/>
<path d="M4613 6510 c-13 -5 -23 -14 -23 -20 0 -15 12 -12 40 10 27 21 20 25
-17 10z"/>
<path d="M4180 6474 c0 -5 7 -19 15 -30 8 -10 15 -14 15 -8 0 5 -7 19 -15 30
-8 10 -15 14 -15 8z"/>
<path d="M4127 5754 c-4 -4 -2 -13 3 -19 6 -7 14 -39 19 -71 l9 -59 1 46 c1
48 -20 115 -32 103z"/>
<path d="M8299 5213 c-40 -54 -41 -56 -12 -33 18 14 32 29 32 34 1 5 8 18 18
28 9 10 14 20 11 23 -3 3 -25 -20 -49 -52z"/>
<path d="M8322 5160 c0 -19 2 -27 5 -17 2 9 2 25 0 35 -3 9 -5 1 -5 -18z"/>
<path d="M8200 5120 c-19 -16 -39 -29 -43 -30 -5 0 -29 -14 -55 -32 -59 -39
-56 -37 -50 -44 4 -3 19 3 35 13 50 32 165 123 156 123 -5 0 -24 -13 -43 -30z"/>
<path d="M8550 5129 c14 -11 37 -25 52 -30 15 -6 41 -32 57 -57 37 -58 51 -72
91 -96 25 -14 17 -3 -29 44 -33 34 -61 68 -61 75 0 7 -20 23 -44 35 -24 11
-50 28 -56 36 -7 7 -18 14 -24 14 -6 0 0 -10 14 -21z"/>
<path d="M9150 4994 c0 -8 5 -12 10 -9 6 3 10 10 10 16 0 5 -4 9 -10 9 -5 0
-10 -7 -10 -16z"/>
<path d="M8065 4944 c36 -28 61 -36 30 -10 -16 14 -34 26 -40 26 -5 -1 -1 -8
10 -16z"/>
<path d="M8343 4895 c0 -22 2 -30 4 -17 2 12 2 30 0 40 -3 9 -5 -1 -4 -23z"/>
<path d="M8511 4894 c-21 -27 -38 -90 -27 -101 3 -4 6 3 6 15 0 34 31 90 53
96 11 3 29 -2 41 -10 22 -15 96 -20 96 -5 0 4 -11 6 -24 4 -14 -3 -39 2 -57
11 -45 22 -64 20 -88 -10z"/>
<path d="M8830 4895 c7 -9 15 -13 17 -11 7 7 -7 26 -19 26 -6 0 -6 -6 2 -15z"/>
<path d="M8159 4867 c19 -20 36 -35 39 -33 4 5 -23 33 -53 56 -11 8 -5 -2 14
-23z"/>
<path d="M8250 4860 c14 -11 36 -20 50 -20 20 0 17 4 -19 20 -54 25 -63 25
-31 0z"/>
<path d="M9380 4839 c0 -28 5 -38 20 -42 26 -7 26 19 0 53 l-20 25 0 -36z"/>
<path d="M8601 4804 c0 -11 3 -14 6 -6 3 7 2 16 -1 19 -3 4 -6 -2 -5 -13z"/>
<path d="M8245 4790 c10 -11 20 -20 22 -20 2 0 -1 9 -7 20 -6 11 -16 20 -22
20 -6 0 -3 -9 7 -20z"/>
<path d="M8475 4769 c-4 -6 -5 -12 -2 -15 2 -3 7 2 10 11 7 17 1 20 -8 4z"/>
<path d="M8280 4755 c0 -3 17 -32 37 -63 20 -31 45 -79 55 -107 18 -49 18 -50
12 -10 -6 42 -104 211 -104 180z"/>
<path d="M8580 4743 c0 -6 -12 -28 -26 -49 -15 -21 -19 -32 -10 -24 21 17 49
70 42 78 -3 3 -6 1 -6 -5z"/>
<path d="M9033 4704 c-8 -21 17 -67 64 -119 29 -32 32 -34 18 -10 -10 17 -29
46 -42 65 -25 37 -28 50 -14 50 5 0 16 -16 25 -35 15 -31 46 -49 46 -26 0 59
-79 120 -97 75z"/>
<path d="M8503 4628 c-27 -30 -61 -84 -48 -76 12 7 79 98 72 98 -2 0 -13 -10
-24 -22z"/>
<path d="M9340 4624 c0 -19 27 -47 38 -40 7 4 12 12 12 17 0 6 -5 7 -11 4 -6
-4 -17 1 -24 11 -8 11 -15 14 -15 8z"/>
<path d="M8406 4607 c3 -10 9 -15 12 -12 3 3 0 11 -7 18 -10 9 -11 8 -5 -6z"/>
<path d="M9482 4558 c-5 -18 -13 -42 -18 -53 -7 -17 -6 -18 8 -7 16 13 34 79
24 89 -2 3 -9 -10 -14 -29z"/>
<path d="M9214 4467 c22 -16 206 -25 206 -9 0 5 -33 8 -72 8 -40 -1 -91 3
-113 8 -37 8 -38 7 -21 -7z"/>
<path d="M9507 4133 c-4 -3 -6 -40 -5 -82 l1 -76 7 80 c6 87 6 88 -3 78z"/>
<path d="M4193 4012 c10 -10 14 -22 10 -25 -3 -4 -1 -7 5 -7 16 0 15 18 -2 36
-21 21 -32 17 -13 -4z"/>
<path d="M4284 4012 c3 -6 -2 -15 -11 -21 -10 -6 -13 -11 -7 -11 20 0 37 27
23 36 -7 4 -9 3 -5 -4z"/>
<path d="M4316 4005 c-3 -8 -1 -15 4 -15 6 0 10 7 10 15 0 8 -2 15 -4 15 -2 0
-6 -7 -10 -15z"/>
<path d="M4218 3963 c-16 -28 -16 -28 13 -30 15 -1 31 2 34 8 4 5 11 7 16 4 5
-4 12 1 15 9 3 9 11 13 18 9 8 -4 8 -2 -1 7 -12 13 -37 5 -28 -10 3 -4 -6 -3
-19 3 -13 7 -22 15 -20 19 3 5 1 8 -3 8 -5 0 -16 -12 -25 -27z m33 -7 c5 3 9
0 9 -5 0 -13 -27 -15 -34 -2 -3 4 -2 11 2 15 3 4 8 2 10 -3 2 -6 8 -9 13 -5z"/>
<path d="M4251 3910 c-13 -11 -18 -20 -13 -20 6 0 14 5 17 10 4 6 11 7 17 4 6
-4 8 -2 4 4 -3 5 0 13 6 15 7 3 9 6 3 6 -5 0 -21 -9 -34 -19z"/>
<path d="M9865 3070 c3 -5 8 -10 11 -10 2 0 4 5 4 10 0 6 -5 10 -11 10 -5 0
-7 -4 -4 -10z"/>
<path d="M6415 1230 c-3 -5 -1 -10 4 -10 6 0 11 5 11 10 0 6 -2 10 -4 10 -3 0
-8 -4 -11 -10z"/>
<path d="M7510 1254 c0 -15 37 -61 44 -54 3 3 -6 19 -19 35 -13 17 -24 25 -25
19z"/>
<path d="M4405 1099 c-4 -6 -5 -12 -2 -15 2 -3 7 2 10 11 7 17 1 20 -8 4z"/>
<path d="M4654 1088 l-19 -23 23 19 c21 18 27 26 19 26 -2 0 -12 -10 -23 -22z"/>
<path d="M4375 1090 c-3 -5 -1 -10 4 -10 6 0 11 5 11 10 0 6 -2 10 -4 10 -3 0
-8 -4 -11 -10z"/>
<path d="M4481 1064 c0 -11 3 -14 6 -6 3 7 2 16 -1 19 -3 4 -6 -2 -5 -13z"/>
<path d="M4357 506 c-4 -10 -1 -13 8 -9 8 3 12 9 9 14 -7 12 -11 11 -17 -5z"/>
<path d="M4846 515 c-3 -8 -1 -15 5 -15 6 0 7 -5 3 -11 -5 -8 -10 -6 -16 5
-12 22 -24 20 -24 -3 0 -11 4 -18 7 -15 4 2 10 0 14 -5 7 -13 45 24 45 44 0 8
-6 15 -14 15 -8 0 -16 -7 -20 -15z"/>
<path d="M4890 522 c0 -4 12 -8 28 -9 23 -1 24 -1 7 7 -26 11 -35 12 -35 2z"/>
<path d="M5377 453 c-10 -9 -9 -23 1 -23 5 0 9 7 9 15 0 17 -1 18 -10 8z"/>
<path d="M5496 516 c3 -9 11 -16 16 -16 13 0 5 23 -10 28 -7 2 -10 -2 -6 -12z"/>
</g>
</svg>
